<svg width="76" height="76" viewBox="0 0 76 76" fill="none" xmlns="http://www.w3.org/2000/svg"><g filter="url(#filter0_d_58_166)"><path d="M53.2491 18.7493L59.3011 20.6152L58.3548 26.8772L63 31.1824L59.4296 36.4134L61.7467 42.3088L56.2602 45.4734L55.7887 51.7887L49.4734 52.2602L46.3088 57.7467L40.4134 55.4296L35.1824 59L30.8772 54.3548L24.6152 55.3011L22.7493 49.2491L16.6973 47.3848L17.6436 41.1228L13 36.8161L16.5689 31.585L14.2533 25.6896L19.7382 22.525L20.2098 16.2098L26.525 15.7382L29.6896 10.2533L35.585 12.5689L40.8161 9L45.1228 13.6436L51.3848 12.6973L53.2491 18.7493Z" fill="#EB5858"/></g><path d="M28 30.416C28 29.52 28.184 28.744 28.552 28.088C28.936 27.416 29.456 26.904 30.112 26.552C30.768 26.184 31.496 26 32.296 26C33.112 26 33.84 26.184 34.48 26.552C35.136 26.904 35.648 27.416 36.016 28.088C36.4 28.744 36.592 29.52 36.592 30.416C36.592 31.312 36.4 32.096 36.016 32.768C35.648 33.424 35.136 33.936 34.48 34.304C33.84 34.656 33.112 34.832 32.296 34.832C31.496 34.832 30.768 34.656 30.112 34.304C29.456 33.936 28.936 33.424 28.552 32.768C28.184 32.096 28 31.312 28 30.416ZM30.52 30.416C30.52 31.104 30.688 31.632 31.024 32C31.376 32.368 31.8 32.552 32.296 32.552C32.792 32.552 33.208 32.368 33.544 32C33.896 31.632 34.072 31.104 34.072 30.416C34.072 29.728 33.896 29.2 33.544 28.832C33.208 28.464 32.792 28.28 32.296 28.28C31.8 28.28 31.376 28.464 31.024 28.832C30.688 29.2 30.52 29.728 30.52 30.416ZM31.144 42.848L41.944 26.288H45.304L34.504 42.848H31.144ZM39.856 38.72C39.856 37.824 40.04 37.048 40.408 36.392C40.792 35.72 41.312 35.208 41.968 34.856C42.624 34.488 43.352 34.304 44.152 34.304C44.968 34.304 45.696 34.488 46.336 34.856C46.992 35.208 47.504 35.72 47.872 36.392C48.256 37.048 48.448 37.824 48.448 38.72C48.448 39.616 48.256 40.4 47.872 41.072C47.504 41.728 46.992 42.24 46.336 42.608C45.696 42.96 44.968 43.136 44.152 43.136C43.352 43.136 42.624 42.96 41.968 42.608C41.312 42.24 40.792 41.728 40.408 41.072C40.04 40.4 39.856 39.616 39.856 38.72ZM42.376 38.72C42.376 39.408 42.544 39.936 42.88 40.304C43.232 40.672 43.656 40.856 44.152 40.856C44.648 40.856 45.064 40.672 45.4 40.304C45.752 39.936 45.928 39.408 45.928 38.72C45.928 38.032 45.752 37.504 45.4 37.136C45.064 36.768 44.648 36.584 44.152 36.584C43.656 36.584 43.232 36.768 42.88 37.136C42.544 37.504 42.376 38.032 42.376 38.72Z" fill="white"/><defs><filter id="filter0_d_58_166" x="0.2" y="0.2" width="75.6" height="75.6" filterUnits="userSpaceOnUse" color-interpolation-filters="sRGB"><feFlood flood-opacity="0" result="BackgroundImageFix"/><feColorMatrix in="SourceAlpha" type="matrix" values="0 0 0 0 0 0 0 0 0 0 0 0 0 0 0 0 0 0 127 0" result="hardAlpha"/><feOffset dy="4"/><feGaussianBlur stdDeviation="6.4"/><feComposite in2="hardAlpha" operator="out"/><feColorMatrix type="matrix" values="0 0 0 0 0 0 0 0 0 0 0 0 0 0 0 0 0 0 0.1 0"/><feBlend mode="normal" in2="BackgroundImageFix" result="effect1_dropShadow_58_166"/><feBlend mode="normal" in="SourceGraphic" in2="effect1_dropShadow_58_166" result="shape"/></filter></defs></svg>