<svg width="115" height="86" viewBox="0 0 115 86" fill="none" xmlns="http://www.w3.org/2000/svg"><g clip-path="url(#clip0_240_3307)"><path d="M71.4511 76.6999H6.54932C5.09993 76.7133 3.91393 75.5494 3.90022 74.0998V3.89997C3.91393 2.45057 5.09977 1.28651 6.54932 1.29992H71.4511C72.9005 1.28651 74.0865 2.45042 74.1002 3.89997V74.0998C74.0865 75.5494 72.9005 76.7133 71.4511 76.6999Z" fill="#F6FCFF"/><path d="M71.4511 76.6999H6.54932C5.09993 76.7133 3.91393 75.5494 3.90022 74.0998V3.89997C3.91393 2.45057 5.09977 1.28651 6.54932 1.29992H71.4511C72.9005 1.28651 74.0865 2.45042 74.1002 3.89997V74.0998C74.0865 75.5494 72.9005 76.7133 71.4511 76.6999Z" fill="#7FACFA"/><path d="M3.9 66.3002V3.90034C3.87349 2.49177 4.99321 1.32802 6.40193 1.30029H67.6981C69.1067 1.32787 70.2265 2.49162 70.2 3.90034V74.1002C70.2265 75.5088 69.1068 76.6725 67.6981 76.7003H6.40193C4.99337 76.6727 3.87349 75.5089 3.9 74.1002V66.3002Z" fill="#F6FCFF"/><path d="M74.0999 67.5998V74.0996C74.0848 75.5497 72.8979 76.7133 71.4479 76.6997H6.55199C5.10198 76.7134 3.91508 75.5497 3.89999 74.0996V67.5996H74.0999V67.5998Z" fill="#7FACFA"/><path d="M70.2003 67.5998L70.1999 74.0996C70.225 75.5088 69.1044 76.6723 67.6952 76.6997H6.40467C4.9955 76.6723 3.87486 75.5088 3.89999 74.0996L3.89954 67.5996H70.2003V67.5998Z" fill="#F6FCFF"/><path d="M74.1001 3.89997V12.9999H3.90022V3.89997C3.91515 2.44997 5.10221 1.28621 6.55222 1.29992H71.4481C72.8983 1.28637 74.0852 2.44997 74.1001 3.89997Z" fill="#7FACFA"/><path d="M70.1999 3.90034L70.2004 13.0003H3.89974L3.90005 3.90034C3.87476 2.49116 4.99555 1.32771 6.40473 1.30029H67.6954C69.1044 1.32787 70.2252 2.49116 70.1999 3.90034Z" fill="#F6FCFF"/><path d="M58.5 67.6001H55.9V76.7H58.5V67.6001Z" fill="#1E1E1E"/><path d="M19.5 50.7H14.3C12.8659 50.6957 11.7042 49.5342 11.7 48.0999V32.4999C11.7042 31.0658 12.8657 29.9042 14.3 29.8999H19.5V50.7Z" fill="#A4C2F7"/><path d="M60.658 45.4999C58.0377 56.3969 47.6838 63.6139 36.5534 62.3014C25.4231 60.9891 17.0316 51.562 17.0175 40.3544C17.0035 29.1469 25.3714 19.6987 36.4985 18.3586C47.6256 17.0184 57.9975 24.2095 60.645 35.0997" fill="#F6FCFF"/><path d="M39.182 23.3999C38.2854 23.4031 37.3903 23.4726 36.5039 23.6078C28.3083 24.9259 22.2821 31.9989 22.2821 40.2998C22.2821 48.6007 28.3083 55.6737 36.5039 56.9918C37.3903 57.1272 38.2853 57.1967 39.182 57.1997C46.5079 57.1949 52.9962 52.4702 55.2499 45.4998V35.0999C52.9962 28.1294 46.5079 23.4049 39.182 23.3999Z" fill="url(#paint0_linear_240_3307)"/><path d="M52 35.1001H64.9999C65.7179 35.1001 66.2999 35.6822 66.2999 36.4V44.2C66.2999 44.918 65.7179 45.5 64.9999 45.5H52C51.282 45.5 50.7001 44.9179 50.7001 44.2V36.4C50.6999 35.6822 51.282 35.1001 52 35.1001Z" fill="#7FACFA"/><path d="M51.8257 35.1001H61.2741C61.8958 35.1001 62.3999 35.6042 62.3999 36.2259V44.3743C62.3999 44.996 61.8958 45.5001 61.2741 45.5001H51.8257C51.204 45.5001 50.6999 44.996 50.6999 44.3743V36.2259C50.6999 35.6042 51.204 35.1001 51.8257 35.1001Z" fill="#F6FCFF"/><path d="M3.90022 3.89985V74.0997C3.9153 75.5497 5.10221 76.7133 6.55222 76.6998L10.2962 76.6999C8.89023 76.6682 7.77447 75.5058 7.80022 74.0997V3.89985C7.77432 2.49372 8.89023 1.33134 10.2962 1.2998L6.55222 1.29996C5.10221 1.28625 3.9153 2.44985 3.90022 3.89985Z" fill="white"/><path d="M5.2001 14.3003V31.2002V67.6002H2.60005V31.2002V14.3003H5.2001Z" fill="white"/><path d="M3.90001 26.0001C4.24415 25.9949 4.57367 25.8602 4.82305 25.6231C5.32579 25.1104 5.32579 24.2897 4.82305 23.7771L4.62821 23.621C4.55569 23.5716 4.47693 23.5321 4.3939 23.5035C4.32017 23.466 4.2411 23.44 4.1596 23.426C4.07383 23.4113 3.98699 23.4026 3.90001 23.3999C3.55586 23.4046 3.22619 23.5393 2.97696 23.777C2.48626 24.2945 2.48626 25.1054 2.97696 25.6229C3.10112 25.7402 3.2466 25.833 3.4055 25.8959C3.56195 25.9628 3.72999 25.9981 3.90001 26.0001Z" fill="#428AF5"/><path d="M67.6 5.2002C66.882 5.2002 66.3 5.7823 66.3 6.50014V7.80009C66.3 8.51808 66.8821 9.10004 67.6 9.10004C68.3178 9.10004 68.8999 8.51793 68.8999 7.80009V6.50014C68.8999 5.78215 68.318 5.2002 67.6 5.2002Z" fill="#428AF5"/><path d="M62.3999 5.2002C61.6819 5.2002 61.0999 5.7823 61.0999 6.50014V7.80009C61.0999 8.51808 61.6821 9.10004 62.3999 9.10004C63.1179 9.10004 63.6998 8.51793 63.6998 7.80009V6.50014C63.7 5.78215 63.1179 5.2002 62.3999 5.2002Z" fill="#428AF5"/><path d="M19.5 6.5H10.4C9.68205 6.5 9.1001 7.0821 9.1001 7.79995C9.1001 8.51779 9.6822 9.09989 10.4 9.09989H19.5C20.218 9.09989 20.7999 8.51779 20.7999 7.79995C20.7999 7.0821 20.218 6.5 19.5 6.5Z" fill="#428AF5"/><path d="M18.9483 52C23.627 60.1229 32.7083 64.662 42.0136 63.5286C51.3187 62.3951 59.045 55.8086 61.6368 46.8001H65.0001C66.4355 46.7987 67.5986 45.6354 67.6001 44.2V36.4C67.5988 34.9646 66.4355 33.8015 65.0001 33.8H61.626C59.0369 24.7919 51.3126 18.205 42.0087 17.0714C32.7048 15.9379 23.6248 20.4772 18.9485 28.6H14.3C12.1471 28.6023 10.4023 30.3471 10.4 32.5V48.1C10.4023 50.2529 12.1471 51.9977 14.3 52H18.9483ZM65.0019 44.2H52V36.4H64.9999L65.0019 44.2ZM52 46.7999H53.3422C50.2878 53.4695 43.0002 57.1108 35.8327 55.5485C28.6653 53.9862 23.5541 47.6424 23.5523 40.3069C23.5505 32.9714 28.659 26.6251 35.8256 25.0594C42.9922 23.4939 50.2816 27.1319 53.339 33.8H51.9999C50.5645 33.8013 49.4013 34.9646 49.3998 36.4V44.2C49.4013 45.6352 50.5646 46.7985 52 46.7999ZM39.1821 19.5C48.1727 19.4658 56.1544 25.247 58.9255 33.8H56.1553C53.0196 25.6037 44.4811 20.813 35.8518 22.408C27.2224 24.0031 20.9606 31.5296 20.9619 40.305C20.9631 49.0805 27.2271 56.6052 35.8571 58.1976C44.4869 59.7901 53.0241 54.9969 56.1573 46.7997H58.9345C55.6095 56.9013 45.1994 62.867 34.803 60.6289C24.4067 58.3908 17.3733 48.6701 18.4992 38.0951C19.6252 27.5202 28.5475 19.4987 39.1821 19.5ZM13.0001 48.1V32.5C13.001 31.7825 13.5825 31.201 14.3 31.2001H17.6242C15.1682 37.0182 15.1682 43.5819 17.6242 49.4001H14.3C13.5825 49.399 13.001 48.8175 13.0001 48.1Z" fill="#428AF5"/><path d="M6.54895 77.9999H71.4511C73.6174 78.0109 75.384 76.2662 75.4 74.0999V3.90004C75.3838 1.73372 73.6174 -0.0107649 71.4511 5.14388e-05H6.54895C4.38262 -0.0109173 2.61605 1.73372 2.60005 3.90004V19.5C2.60005 20.218 3.18216 20.8 3.9 20.8C4.61784 20.8 5.19995 20.2179 5.19995 19.5V14.3001H72.7998V66.2999H5.2001V29.9C5.2001 29.182 4.61799 28.6001 3.90015 28.6001C3.18231 28.6001 2.6002 29.1822 2.6002 29.9V74.0999C2.61605 76.2662 4.38262 78.0109 6.54895 77.9999ZM5.2001 74.0999V68.9H55.9V75.4H6.54895C5.81785 75.4123 5.21457 74.831 5.2001 74.0999ZM5.2001 3.90004C5.21472 3.1691 5.818 2.5876 6.54895 2.6001H24.7001V11.7H5.2001V3.90004ZM27.3 11.7V2.6001H71.4509C72.182 2.5876 72.7853 3.1691 72.7998 3.90004V11.7H27.3ZM72.7999 74.0999C72.7853 74.8308 72.182 75.4123 71.4511 75.3999H58.4999V68.8998H72.7999V74.0999Z" fill="#428AF5"/></g><path d="M85.5 38C39.5 39.5 28.5 70 28.5 83.5H83L85.5 38Z" fill="white"/><path d="M102.85 46.2002H83.95C83.95 46.2002 44.8 46.2002 38.05 77.6335H98.8C98.8053 74.6435 100.722 72.0011 103.539 71.1009C104.709 70.7818 105.529 69.7172 105.55 68.4905V48.9335C105.546 47.4258 104.339 46.2047 102.85 46.2002ZM98.8 63.9669C98.7956 65.4746 97.5893 66.6957 96.1 66.7002H73.15C72.0089 66.6979 70.9925 65.9697 70.6108 64.8811C70.2291 63.7925 70.5647 62.5785 71.449 61.8485L79.6975 55.0152C80.1821 54.6166 80.7876 54.3994 81.412 54.4002H96.1C97.5893 54.4047 98.7956 55.6258 98.8 57.1335V63.9669Z" fill="#F6FCFF"/><path d="M105.55 81.05C105.553 81.957 105.198 82.8278 104.565 83.4691C103.931 84.1105 103.071 84.4696 102.175 84.4666H38.725C36.861 84.4666 35.35 82.9369 35.35 81.05C35.35 79.163 36.861 77.6333 38.725 77.6333H102.175C104.039 77.6333 105.55 79.163 105.55 81.05Z" fill="#A4C2F7"/><path d="M102.175 77.6333H98.125C99.989 77.6333 101.5 79.163 101.5 81.05C101.5 82.9369 99.989 84.4666 98.125 84.4666H102.175C104.039 84.4666 105.55 82.9369 105.55 81.05C105.55 79.163 104.039 77.6333 102.175 77.6333Z" fill="#7FACFA"/><path d="M45.5142 73.5335C45.0531 73.5313 44.625 73.291 44.3789 72.8963C44.1328 72.5016 44.1027 72.007 44.2992 71.5847C47.4284 65.0767 52.6116 59.8107 59.029 56.6197C59.6896 56.2694 60.5056 56.5276 60.8515 57.1964C61.1975 57.8651 60.9424 58.6912 60.2818 59.0414C54.3869 61.9583 49.6211 66.782 46.7386 72.7491C46.5154 73.2289 46.0381 73.5347 45.5142 73.5335Z" fill="#428AF5"/><path d="M102.85 46.2H86.65L88.675 41.0846C89.0846 40.0483 90.0754 39.3683 91.1779 39.3667H98.3221C99.4246 39.3683 100.415 40.0483 100.825 41.0846L102.85 46.2Z" fill="#F6FCFF"/><path d="M100.825 41.0846C100.415 40.0483 99.4246 39.3683 98.3221 39.3667H94.2721C95.3746 39.3683 96.3654 40.0483 96.775 41.0846L98.8 46.2H102.85L100.825 41.0846Z" fill="#CAD9FC"/><path d="M94.75 66.7001L91.51 62.3267C91.0001 61.6385 90.1999 61.2334 89.35 61.2334H83.95C83.1002 61.2334 82.2999 61.6385 81.79 62.3267L78.55 66.7001" fill="#A4C2F7"/><path d="M91.51 62.3267C91.0001 61.6385 90.1998 61.2334 89.35 61.2334H85.3C86.1498 61.2334 86.9501 61.6385 87.46 62.3267L90.7 66.7001H94.75L91.51 62.3267Z" fill="#7FACFA"/><path d="M63.7 57.1332C64.4456 57.1332 65.05 56.5214 65.05 55.7666C65.05 55.0118 64.4456 54.3999 63.7 54.3999C62.9544 54.3999 62.35 55.0118 62.35 55.7666C62.35 56.5214 62.9544 57.1332 63.7 57.1332Z" fill="#428AF5"/><path d="M86.65 46.2002H83.95C83.95 46.2002 44.8 46.2002 38.05 77.6335H38.725C36.861 77.6335 35.35 79.1632 35.35 81.0502C35.35 82.9372 36.861 84.4669 38.725 84.4669H42.775C40.911 84.4669 39.4 82.9372 39.4 81.0502C39.4 79.1632 40.911 77.6335 42.775 77.6335H42.1C48.85 46.2002 88 46.2002 88 46.2002H90.7" fill="white"/><path d="M40.6892 66.771L43.0355 68.1226C41.3365 71.1856 40.1005 74.4891 39.3689 77.923L36.731 77.3435C37.52 73.6386 38.8543 70.0746 40.6892 66.771Z" fill="white"/><path d="M39.6295 73.7587C38.8839 73.7625 38.2765 73.1537 38.2728 72.3989C38.269 71.6441 38.8704 71.0292 39.616 71.0254H39.6295C40.3751 71.0254 40.9795 71.6373 40.9795 72.3921C40.9795 73.1468 40.3751 73.7587 39.6295 73.7587Z" fill="#428AF5"/><path d="M38.725 85.8334H102.175C104.785 85.8334 106.9 83.6918 106.9 81.05C106.9 78.4083 104.785 76.2667 102.175 76.2667H100.336C100.792 74.4329 102.159 72.9722 103.944 72.4127C105.675 71.9048 106.875 70.311 106.9 68.4863V53.17C110.041 53.8239 112.296 56.6207 112.3 59.8667V84.4667C112.3 85.2215 112.904 85.8334 113.65 85.8334C114.396 85.8334 115 85.2215 115 84.4667V59.8667C114.991 55.1167 111.543 51.0914 106.9 50.4094V48.9334C106.892 47.0527 105.621 45.4189 103.817 44.97L102.083 40.583C101.474 39.0207 99.9813 37.9957 98.3221 38H91.1779C89.52 37.9948 88.0279 39.0174 87.4168 40.5776L85.7361 44.8334H83.95C79.7634 44.956 75.5977 45.479 71.5084 46.3955C67.4156 47.2759 63.4219 48.5759 59.5893 50.2754C55.7215 51.9829 52.1071 54.2266 48.85 56.942C45.5855 59.7108 42.8257 63.0375 40.696 66.7711C40.515 67.0923 40.4703 67.474 40.572 67.8291C40.6738 68.1842 40.9133 68.4825 41.236 68.6557C41.8799 69.0039 42.6807 68.7671 43.0382 68.1227C45.0093 64.6714 47.562 61.596 50.5807 59.0358C53.6469 56.485 57.0481 54.3775 60.6868 52.7737C64.3508 51.1509 68.1685 49.91 72.0808 49.07C75.9822 48.195 79.9559 47.6917 83.95 47.5667H102.85C103.596 47.5667 104.2 48.1786 104.2 48.9334V68.4863C104.176 69.1145 103.744 69.6508 103.142 69.8024C100.222 70.7123 98.0619 73.2156 97.5634 76.2667H38.725C36.1155 76.2667 34 78.4083 34 81.05C34 83.6918 36.1155 85.8334 38.725 85.8334ZM88.644 44.8334L89.9251 41.593C90.128 41.0726 90.6253 40.7314 91.1779 40.7334H98.3221C98.8747 40.7314 99.372 41.0726 99.5749 41.593L100.856 44.8334H88.644ZM38.725 79H102.175C103.293 79 104.2 79.9178 104.2 81.05C104.2 82.1822 103.293 83.1 102.175 83.1H38.725C37.6066 83.1 36.7 82.1822 36.7 81.05C36.7 79.9178 37.6066 79 38.725 79Z" fill="#428AF5"/><path d="M38.725 85.8334H102.175C104.785 85.8334 106.9 83.6918 106.9 81.05C106.9 78.4083 104.785 76.2667 102.175 76.2667H100.336C100.792 74.4329 102.159 72.9722 103.944 72.4127C105.675 71.9048 106.875 70.311 106.9 68.4863V53.17C110.041 53.8239 112.296 56.6207 112.3 59.8667V84.4667C112.3 85.2215 112.904 85.8334 113.65 85.8334C114.396 85.8334 115 85.2215 115 84.4667V59.8667C114.991 55.1167 111.543 51.0914 106.9 50.4094V48.9334C106.892 47.0527 105.621 45.4189 103.817 44.97L102.083 40.583C101.474 39.0207 99.9813 37.9957 98.3221 38H91.1779C89.52 37.9948 88.0279 39.0174 87.4168 40.5776L85.7361 44.8334H83.95C79.7634 44.956 75.5977 45.479 71.5084 46.3955C67.4156 47.2759 63.4219 48.5759 59.5893 50.2754C55.7215 51.9829 52.1071 54.2266 48.85 56.942C45.5855 59.7108 42.8257 63.0375 40.696 66.7711C40.515 67.0923 40.4703 67.474 40.572 67.8291C40.6738 68.1842 40.9133 68.4825 41.236 68.6557C41.8799 69.0039 42.6807 68.7671 43.0382 68.1227C45.0093 64.6714 47.562 61.596 50.5807 59.0358C53.6469 56.485 57.0481 54.3775 60.6868 52.7737C64.3508 51.1509 68.1685 49.91 72.0808 49.07C75.9822 48.195 79.9559 47.6917 83.95 47.5667H102.85C103.596 47.5667 104.2 48.1786 104.2 48.9334V68.4863C104.176 69.1145 103.744 69.6508 103.142 69.8024C100.222 70.7123 98.0619 73.2156 97.5634 76.2667H38.725C36.1155 76.2667 34 78.4083 34 81.05C34 83.6918 36.1155 85.8334 38.725 85.8334ZM88.644 44.8334L89.9251 41.593C90.128 41.0726 90.6253 40.7314 91.1779 40.7334H98.3221C98.8747 40.7314 99.372 41.0726 99.5749 41.593L100.856 44.8334H88.644ZM38.725 79H102.175C103.293 79 104.2 79.9178 104.2 81.05C104.2 82.1822 103.293 83.1 102.175 83.1H38.725C37.6066 83.1 36.7 82.1822 36.7 81.05C36.7 79.9178 37.6066 79 38.725 79Z" fill="#428AF5"/><path d="M73.15 68.0665H96.1C98.3368 68.0665 100.15 66.2309 100.15 63.9665V57.1332C100.15 54.8688 98.3368 53.0332 96.1 53.0332H81.4053C80.4704 53.034 79.5644 53.3612 78.8403 53.9598L70.5891 60.7931C69.2646 61.89 68.764 63.7113 69.3386 65.3431C69.9131 66.9749 71.4388 68.0651 73.15 68.0665ZM81.25 65.3332L82.87 63.1465C83.125 62.8024 83.5251 62.5999 83.95 62.5999H89.35C89.7749 62.5999 90.1751 62.8024 90.43 63.1465L92.05 65.3332H81.25ZM72.2995 62.9087L80.5494 56.0754C80.7908 55.8754 81.0933 55.7663 81.4053 55.7665H96.1C96.8456 55.7665 97.45 56.3784 97.45 57.1332V63.9665C97.45 64.7213 96.8456 65.3332 96.1 65.3332H95.425L92.59 61.5065C91.8232 60.4765 90.6241 59.8695 89.35 59.8665H83.95C82.6757 59.8687 81.4763 60.4758 80.71 61.5065L77.875 65.3332H73.15C72.5792 65.3337 72.0698 64.9706 71.8777 64.4265C71.6855 63.8823 71.8523 63.2746 72.2941 62.9087H72.2995Z" fill="#428AF5"/><defs><linearGradient id="paint0_linear_240_3307" x1="27.2247" y1="28.3474" x2="51.7069" y2="51.6406" gradientUnits="userSpaceOnUse"><stop stop-color="#D4E1F4"/><stop offset="0.1717" stop-color="#D4E1F4"/><stop offset="0.2" stop-color="#D4E1F4"/><stop offset="0.2001" stop-color="#DAE4F4"/><stop offset="0.2007" stop-color="#EBEBF4"/><stop offset="0.2014" stop-color="#F6F1F4"/><stop offset="0.2023" stop-color="#FDF4F4"/><stop offset="0.205" stop-color="#FFF5F4"/><stop offset="0.2522" stop-color="#FFF5F4"/><stop offset="0.26" stop-color="#D4E1F4"/><stop offset="0.3974" stop-color="#D4E1F4"/><stop offset="0.42" stop-color="#D4E1F4"/><stop offset="0.4201" stop-color="#DAE4F4"/><stop offset="0.4207" stop-color="#EBEBF4"/><stop offset="0.4214" stop-color="#F6F1F4"/><stop offset="0.4223" stop-color="#FDF4F4"/><stop offset="0.425" stop-color="#FFF5F4"/><stop offset="0.4894" stop-color="#FFF5F4"/><stop offset="0.5" stop-color="#F9F2F4"/><stop offset="0.5001" stop-color="#E8EBF4"/><stop offset="0.5003" stop-color="#DDE5F4"/><stop offset="0.5005" stop-color="#D6E2F4"/><stop offset="0.501" stop-color="#D4E1F4"/><stop offset="0.7062" stop-color="#D4E1F4"/><stop offset="0.74" stop-color="#D4E1F4"/><stop offset="0.741" stop-color="#FFF5F4"/><stop offset="0.8346" stop-color="#FFF5F4"/><stop offset="0.85" stop-color="#FFF5F4"/><stop offset="0.851" stop-color="#D4E1F4"/></linearGradient><clipPath id="clip0_240_3307"><rect width="78" height="78" fill="white"/></clipPath></defs></svg>