<svg width="67" height="67" viewBox="0 0 67 67" fill="none" xmlns="http://www.w3.org/2000/svg">
<g id="heroicons:map-pin-20-solid">
<path id="Vector" d="M32.9717 62.2833L32.9491 62.2732L32.8998 62.2513L32.7167 62.1656C31.6386 61.6292 30.5863 61.0424 29.5633 60.4072L29.5628 60.4069C26.8991 58.7544 24.4163 56.8265 22.1555 54.6551C16.7619 49.4597 11.3 41.4029 11.3 30.15C11.3 27.2346 11.8743 24.3478 12.9899 21.6544C14.1056 18.961 15.7408 16.5136 17.8023 14.4522C19.8637 12.3907 22.311 10.7555 25.0045 9.63983C27.6979 8.52417 30.5847 7.94995 33.5 7.94995C36.4154 7.94995 39.3022 8.52417 41.9956 9.63983C44.689 10.7555 47.1364 12.3907 49.1978 14.4522C51.2593 16.5136 52.8945 18.961 54.0102 21.6544C55.1258 24.3478 55.7 27.2346 55.7 30.15C55.7 41.4069 50.2376 49.4607 44.8467 54.6563L44.8467 54.6563C42.1476 57.2577 39.4587 59.1549 37.4381 60.4064L37.4371 60.407C36.423 61.0363 35.5807 61.5025 34.987 61.8089L34.9797 61.8126L34.9725 61.8165C34.6861 61.9691 34.3957 62.1139 34.1015 62.2507L34.051 62.2732L34.025 62.2847L34.0061 62.2942C33.8108 62.3762 33.6861 62.3982 33.6364 62.4043L33.5 62.3795L33.3639 62.4042C33.3125 62.3979 33.1811 62.3743 32.9748 62.2846C32.9738 62.2842 32.9727 62.2837 32.9717 62.2833ZM33.5 38.9375C35.8306 38.9375 38.0658 38.0116 39.7137 36.3637C41.3617 34.7157 42.2875 32.4805 42.2875 30.15C42.2875 27.8194 41.3617 25.5842 39.7137 23.9363C38.0658 22.2883 35.8306 21.3625 33.5 21.3625C31.1695 21.3625 28.9343 22.2883 27.2863 23.9363C25.6384 25.5842 24.7125 27.8194 24.7125 30.15C24.7125 32.4805 25.6384 34.7157 27.2863 36.3637C28.9343 38.0116 31.1695 38.9375 33.5 38.9375Z" stroke="#428AF5" stroke-width="2.5"/>
</g>
</svg>
