<svg width="67" height="67" viewBox="0 0 67 67" fill="none" xmlns="http://www.w3.org/2000/svg">
<g id="ph:phone-fill">
<path id="Vector" d="M46.0648 57.375H46.0625C25.9724 57.375 9.62502 41.0276 9.62503 20.9375L9.62502 20.9352C9.61915 17.6619 10.805 14.4985 12.9611 12.0356C15.1158 9.57432 18.0923 7.98099 21.3352 7.55274C21.9626 7.47733 22.5975 7.60619 23.1459 7.92029C23.6958 8.23529 24.1291 8.7197 24.3811 9.30121L24.3842 9.30821L24.3873 9.31517L29.8056 21.4114V21.4349L29.9087 21.6727C30.1016 22.1179 30.1813 22.6038 30.1406 23.0873C30.1001 23.5681 29.9418 24.0315 29.6798 24.4366C29.6622 24.4625 29.6399 24.4927 29.6073 24.5338L24.1696 30.9797L23.6426 31.6044L24.0035 32.3376C26.088 36.5735 30.4584 40.9029 34.7402 42.9883L35.4751 43.3462L36.0976 42.8165L42.4622 37.4011C42.4629 37.4005 42.4636 37.3999 42.4644 37.3993C42.4895 37.3783 42.5157 37.3588 42.543 37.3408L42.5477 37.3376C42.954 37.0667 43.4214 36.9013 43.9077 36.8564C44.3886 36.812 44.873 36.8869 45.3179 37.0743L45.3344 37.0819L45.3344 37.082L45.3472 37.0877L57.6768 42.6126L57.6849 42.6163L57.6931 42.6198C58.2757 42.8709 58.7613 43.3038 59.0773 43.8539C59.3924 44.4022 59.5221 45.0375 59.4472 45.6654C59.0188 48.908 57.4255 51.8843 54.9644 54.0389C52.5015 56.195 49.338 57.3808 46.0648 57.375Z" stroke="#428AF5" stroke-width="2.5"/>
</g>
</svg>
