<svg width="194" height="194" viewBox="0 0 194 194" fill="none" xmlns="http://www.w3.org/2000/svg"><g filter="url(#filter0_d_58_351)"><path d="M156.137 62.8259L173.126 73.491L165.1 91.8758L175.775 108.857L160.565 121.934L162.821 141.869L143.444 147.054L136.822 165.989L117.114 162.255L102.935 176.444L86.7986 164.524L67.8688 171.157L58.5002 153.421L38.5654 151.179L37.8233 131.135L20.8349 120.469L28.8653 102.086L18.1855 85.1031L33.3952 72.0262L31.1398 52.0917L50.5213 46.9076L57.1383 27.9717L76.8457 31.7092L91.026 17.5163L107.162 29.4369L126.092 22.8033L135.459 40.5437L155.395 42.781L156.137 62.8259Z" fill="url(#paint0_linear_58_351)"/></g><path d="M149.554 66.627L164.649 76.1093L157.514 92.4457L167.008 107.535L153.489 119.157L155.494 136.874L138.271 141.481L132.388 158.308L114.874 154.99L102.273 167.601L87.9317 157.007L71.1076 162.903L62.7863 147.137L45.0712 145.148L44.4071 127.333L29.3103 117.855L36.4452 101.519L26.9573 86.4263L40.4717 74.8034L38.4709 57.0875L55.6894 52.479L61.5724 35.6519L79.0865 38.9706L91.6869 26.3632L106.029 36.9539L122.852 31.0615L131.179 46.8246L148.894 48.8139L149.554 66.627Z" fill="url(#paint1_linear_58_351)"/><path d="M123.981 112.091L121.136 100.796C120.903 99.8612 120.177 99.128 119.249 98.8792L111.777 96.8772L113.681 89.7722C113.953 88.7584 113.351 87.716 112.334 87.4389L78.4485 78.3594C77.4347 78.0877 76.3881 78.6884 76.1153 79.7065L75.2193 83.0503L70.8532 81.8804C70.2952 81.7309 69.7184 82.0602 69.5678 82.6225C69.4171 83.1848 69.7477 83.7573 70.3099 83.908L82.6714 87.2202C83.2294 87.3697 83.8061 87.0403 83.9568 86.478C84.1075 85.9158 83.7769 85.3433 83.2147 85.1926L77.2469 83.5936L78.0927 80.4372L111.607 89.4174L109.482 97.3489L104.509 115.908L89.6772 111.934C89.893 109.22 88.1507 106.658 85.4331 105.93C82.7155 105.202 79.9328 106.556 78.7641 109.01L70.9988 106.929L72.543 101.166L75.5333 101.967C76.0913 102.116 76.6681 101.787 76.8187 101.225C76.9694 100.662 76.6389 100.09 76.0766 99.9393L63.2253 96.4958C62.6673 96.3463 62.0905 96.6757 61.9399 97.238C61.7892 97.8002 62.1197 98.3728 62.682 98.5234L70.5155 100.622L68.7007 107.395C68.5512 107.953 68.8806 108.53 69.4428 108.681L78.2219 111.033C78.0062 113.746 79.7484 116.309 82.4661 117.037C85.1849 117.761 87.9664 116.411 89.1351 113.957L104.9 118.181C104.926 118.188 104.951 118.195 104.981 118.203L107.477 118.872C107.262 121.581 109 124.142 111.722 124.872C114.44 125.6 117.223 124.245 118.391 121.792L120.24 122.287C121.198 122.544 122.187 121.973 122.444 121.015L123.959 115.358C124.246 114.289 124.256 113.159 123.982 112.086L123.981 112.091ZM87.4706 112.434C86.949 114.38 84.9421 115.532 82.9955 115.01C81.0871 114.499 79.9441 112.563 80.3912 110.655C80.4015 110.617 80.4203 110.581 80.4294 110.547C80.4386 110.513 80.45 110.47 80.4506 110.434C81.0193 108.55 82.9846 107.451 84.8918 107.967C86.8373 108.493 87.9868 110.49 87.4695 112.438C87.4695 112.438 87.4695 112.438 87.4683 112.442L87.4706 112.434ZM116.727 120.268C116.205 122.215 114.198 123.366 112.252 122.845C110.343 122.334 109.199 120.402 109.648 118.49C109.658 118.452 109.675 118.42 109.686 118.382C109.696 118.343 109.706 118.305 109.708 118.264C110.277 116.381 112.239 115.276 114.15 115.793C116.097 116.315 117.25 118.317 116.728 120.264L116.727 120.268ZM120.496 120.192L118.932 119.773C119.148 117.059 117.41 114.498 114.688 113.769C111.966 113.039 109.184 114.394 108.019 116.849L106.537 116.451L111.239 98.9017L118.711 100.904C118.907 100.956 119.057 101.111 119.109 101.307L121.958 112.603C122.142 113.333 122.139 114.094 121.943 114.822L120.505 120.19L120.496 120.192Z" fill="#3F3300"/><path d="M75.1238 87.4622C74.5658 87.3127 73.989 87.6421 73.8383 88.2044L72.2884 93.9889L69.6133 93.2722C69.0553 93.1226 68.4785 93.452 68.3279 94.0143C68.1772 94.5766 68.5078 95.1491 69.07 95.2997L87.0031 100.105C87.5611 100.254 88.1378 99.925 88.2885 99.3627C88.4392 98.8005 88.1086 98.228 87.5464 98.0773L74.3159 94.5322L75.8659 88.7477C76.0154 88.1896 75.686 87.6129 75.1238 87.4622Z" fill="#3F3300"/><path d="M71.2297 89.0623C71.3792 88.5043 71.0498 87.9275 70.4876 87.7768L63.4847 85.9004C62.9267 85.7509 62.35 86.0803 62.1993 86.6426C62.0486 87.2048 62.3792 87.7774 62.9415 87.928L69.9443 89.8044C70.5023 89.9539 71.0791 89.6245 71.2297 89.0623Z" fill="#3F3300"/><path d="M65.5096 57.5573L63.0785 66.6303L60.9827 66.0688L61.9791 62.3501L58.3627 61.3811L57.3663 65.0998L55.2706 64.5382L57.7017 55.4652L59.7974 56.0268L58.8558 59.541L62.4722 60.51L63.4138 56.9958L65.5096 57.5573Z" fill="#3F3300"/><path d="M69.535 58.6359L71.7968 59.242L72.4838 69.1504L70.3369 68.5752L70.268 66.379L67.282 65.5789L66.1242 67.4464L63.9773 66.8711L69.5392 58.637L69.535 58.6359ZM70.2162 64.8174L70.0945 61.0457L68.1034 64.2513L70.2162 64.8174ZM71.485 58.5147L70.2774 57.8076L71.387 56.3244L73.24 56.8209L71.485 58.5147Z" fill="#3F3300"/><path d="M73.2882 67.6814L79.431 63.2599L74.9839 62.0683L75.477 60.2281L82.4415 62.0942L82.0203 63.666L76.0947 68.1458L80.5546 69.3408L80.0615 71.1809L72.867 69.2532L73.2882 67.6814Z" fill="#3F3300"/><path d="M90.2165 66.1498L87.4562 65.4102L85.5182 72.643L83.4225 72.0815L85.3605 64.8486L82.5875 64.1056L83.0806 62.2654L90.7096 64.3096L90.2165 66.1498Z" fill="#3F3300"/><path d="M93.079 74.7374C92.3974 74.5548 91.8183 74.2627 91.3396 73.8513C90.8608 73.44 90.4805 72.9683 90.2019 72.4234C89.9233 71.8785 89.749 71.3022 89.6832 70.6956C89.6175 70.0891 89.6628 69.494 89.8203 68.9062C89.9778 68.3184 90.2515 67.7571 90.6233 67.2724C90.9952 66.7876 91.4405 66.3865 91.9605 66.0647C92.4804 65.7429 93.0477 65.5342 93.673 65.4324C94.293 65.3337 94.9309 65.3723 95.5869 65.548C96.2429 65.7238 96.8337 66.0236 97.3135 66.4307C97.7934 66.8378 98.1715 67.318 98.4489 67.8672C98.7264 68.4163 98.8995 68.9969 98.9653 69.6034C99.031 70.21 98.9869 70.8008 98.8351 71.3673C98.673 71.9722 98.4081 72.5176 98.0406 73.0035C97.673 73.4893 97.2276 73.8905 96.7034 74.2111C96.1792 74.5318 95.6108 74.7447 94.9897 74.8477C94.3687 74.9506 93.7349 74.9132 93.079 74.7374ZM91.9475 69.5036C91.854 69.8529 91.8138 70.2073 91.8292 70.5585C91.8436 70.9138 91.9139 71.2477 92.051 71.5538C92.1828 71.863 92.375 72.1337 92.6321 72.3669C92.8892 72.6002 93.2094 72.7682 93.5928 72.8709C93.9762 72.9736 94.363 72.9951 94.7046 72.9131C95.045 72.8354 95.348 72.6929 95.6147 72.4813C95.8814 72.2697 96.1104 72.0115 96.2951 71.714C96.4798 71.4165 96.6211 71.0937 96.7135 70.7487C96.806 70.4036 96.8462 70.0492 96.8307 69.698C96.8152 69.3469 96.7395 69.0162 96.6046 68.7015C96.4698 68.3869 96.2721 68.1194 96.0128 67.8947C95.7534 67.6699 95.4363 67.5074 95.0614 67.4069C94.661 67.2996 94.2912 67.2827 93.9562 67.3573C93.6212 67.4319 93.3193 67.5702 93.0495 67.7764C92.7797 67.9825 92.5518 68.2365 92.366 68.5382C92.1801 68.84 92.0431 69.1639 91.9518 69.5047L91.9475 69.5036ZM96.391 65.1882L95.1834 64.4812L96.293 62.998L98.146 63.4945L96.391 65.1882Z" fill="#3F3300"/><path d="M98.8338 76.2109L101.265 67.1379L103.361 67.6995L101.423 74.9323L105.819 76.1102L105.325 77.9504L98.8338 76.2109Z" fill="#3F3300"/><path d="M119.155 71.9317L116.724 81.0047L114.628 80.4431L115.625 76.7245L112.008 75.7554L111.012 79.4741L108.916 78.9125L111.347 69.8395L113.443 70.4011L112.502 73.9153L116.118 74.8843L117.06 71.3701L119.155 71.9317Z" fill="#3F3300"/><path d="M123.181 73.0102L125.443 73.6163L126.13 83.5248L123.983 82.9495L123.914 80.7533L120.928 79.9532L119.77 81.8207L117.623 81.2455L123.185 73.0114L123.181 73.0102ZM123.862 79.1918L123.74 75.4201L121.749 78.6256L123.862 79.1918ZM125.131 72.889L123.923 72.1819L125.033 70.6987L126.886 71.1952L125.131 72.889Z" fill="#3F3300"/><path d="M126.934 82.0557L133.077 77.6342L128.63 76.4426L129.123 74.6024L136.087 76.4686L135.666 78.0404L129.74 82.5201L134.2 83.7151L133.707 85.5553L126.513 83.6275L126.934 82.0557Z" fill="#3F3300"/><path d="M135.011 85.9046L137.442 76.8315L139.538 77.3931L137.107 86.4661L135.011 85.9046Z" fill="#3F3300"/><path d="M142.674 88.0263C142.077 87.8665 141.545 87.6051 141.077 87.2378C140.609 86.8705 140.231 86.4266 139.941 85.9062C139.651 85.3857 139.472 84.8125 139.393 84.1844C139.315 83.5562 139.378 82.8972 139.566 82.1944C139.735 81.564 140.007 81.007 140.383 80.5234C140.76 80.0398 141.208 79.644 141.729 79.3362C142.25 79.0283 142.813 78.8324 143.43 78.7465C144.042 78.6594 144.666 78.6988 145.305 78.87C146.14 79.0937 146.829 79.4701 147.372 79.9991C147.915 80.5281 148.259 81.1361 148.404 81.8232L146.53 82.5811C146.432 82.1259 146.219 81.7308 145.897 81.3981C145.571 81.0642 145.18 80.8362 144.729 80.7152C144.388 80.6239 144.053 80.6118 143.731 80.6717C143.408 80.7358 143.109 80.8655 142.833 81.0609C142.557 81.2563 142.317 81.5026 142.122 81.8063C141.926 82.11 141.771 82.4518 141.668 82.8352C141.565 83.2186 141.525 83.6051 141.556 83.9694C141.586 84.3336 141.676 84.6635 141.824 84.9633C141.971 85.2632 142.171 85.5222 142.434 85.7342C142.692 85.9492 143.001 86.1053 143.355 86.2C143.789 86.3164 144.235 86.3218 144.687 86.2053C145.141 86.0942 145.593 85.8729 146.039 85.536L145.485 87.6061C144.566 88.1362 143.63 88.2735 142.676 88.0178L142.674 88.0263ZM145.943 85.3824L144.18 84.9099L144.587 83.3892L148.089 84.3274L146.818 89.0684L145.081 88.6027L145.943 85.3824Z" fill="#3F3300"/><path d="M60.7783 126.789L60.4393 128.055L55.5577 126.747L55.8967 125.481L57.7113 125.968L58.9063 121.508C58.8023 121.589 58.6545 121.664 58.4629 121.731C58.2714 121.799 58.0597 121.856 57.8332 121.901C57.6068 121.945 57.3849 121.972 57.1656 121.973C56.9452 121.978 56.7497 121.957 56.5794 121.912L56.932 120.595C57.1024 120.641 57.3121 120.642 57.561 120.599C57.8098 120.557 58.0602 120.491 58.3151 120.409C58.57 120.327 58.7897 120.239 58.9784 120.148C59.1671 120.057 59.2817 119.988 59.3232 119.935L60.7673 120.322L59.1511 126.353L60.774 126.788L60.7783 126.789Z" fill="#3F3300"/><path d="M67.1092 123.404L62.7132 122.227L63.0591 120.936L69.6785 122.71L62.752 130.414L61.1547 129.986L67.1092 123.404Z" fill="#3F3300"/><path d="M70.4078 132.766C69.7518 132.591 69.2028 132.288 68.763 131.851C68.3221 131.418 68.0321 130.915 67.8942 130.34L68.9533 129.761C69.0937 130.191 69.3228 130.563 69.6394 130.88C69.956 131.198 70.3279 131.412 70.7539 131.526C71.1031 131.62 71.4335 131.63 71.7461 131.554C72.0586 131.478 72.3275 131.327 72.557 131.101C72.7866 130.874 72.9508 130.585 73.0444 130.236C73.138 129.887 73.1389 129.576 73.0552 129.276C72.9715 128.975 72.8207 128.72 72.6028 128.511C72.3848 128.301 72.1103 128.15 71.7781 128.061C71.4458 127.972 71.1325 127.966 70.8126 128.035C70.4926 128.105 70.2078 128.248 69.9582 128.464L68.7186 128.132L71.1747 123.106L75.609 124.294L75.2631 125.585L71.8512 124.67L70.7269 127.026C70.9128 126.912 71.1418 126.841 71.4151 126.809C71.6884 126.777 71.9821 126.806 72.2973 126.89C72.8681 127.043 73.3462 127.304 73.7219 127.674C74.0975 128.044 74.364 128.48 74.5063 128.989C74.6497 129.493 74.6471 130.031 74.4941 130.602C74.3321 131.206 74.0446 131.7 73.6328 132.078C73.221 132.456 72.7344 132.705 72.1718 132.828C71.6092 132.951 71.0212 132.931 70.4078 132.766Z" fill="#3F3300"/><path d="M82.794 130.091C82.5965 130.828 82.279 131.45 81.8407 131.945C81.4012 132.443 80.8926 132.791 80.3149 132.988C79.7371 133.184 79.1315 133.196 78.5011 133.027C77.8706 132.858 77.3645 132.549 76.9583 132.088C76.552 131.628 76.2811 131.071 76.1498 130.42C76.0185 129.768 76.0537 129.075 76.2512 128.338C76.4486 127.601 76.7661 126.978 77.2045 126.484C77.6439 125.985 78.1525 125.638 78.7399 125.439C79.3231 125.239 79.9256 125.222 80.5475 125.389C81.1694 125.556 81.6914 125.874 82.0965 126.338C82.4974 126.802 82.764 127.357 82.8953 128.009C83.0266 128.66 82.9914 129.354 82.794 130.091ZM81.3627 129.707C81.4963 129.209 81.5383 128.745 81.4854 128.329C81.4336 127.909 81.2951 127.557 81.0711 127.269C80.847 126.98 80.5561 126.788 80.1983 126.693C79.8405 126.597 79.4797 126.614 79.1415 126.752C78.8033 126.889 78.5073 127.125 78.2481 127.462C77.9889 127.799 77.7947 128.217 77.6611 128.715C77.5276 129.214 77.4867 129.673 77.5439 130.09C77.601 130.507 77.7395 130.859 77.9636 131.148C78.1876 131.436 78.4828 131.629 78.8492 131.727C79.2155 131.826 79.5507 131.801 79.8889 131.664C80.2229 131.525 80.5189 131.289 80.7769 130.956C81.035 130.624 81.2335 130.207 81.367 129.708L81.3627 129.707Z" fill="#3F3300"/><path d="M86.636 135.074L89.0671 126.001L95.1116 127.621L94.7726 128.886L90.1594 127.65L89.4335 130.359L93.2927 131.393L92.9743 132.581L89.115 131.547L88.0673 135.457L86.636 135.074Z" fill="#3F3300"/><path d="M97.5966 137.668C97.4613 137.696 97.2951 137.72 97.098 137.74C96.9008 137.76 96.6804 137.765 96.4452 137.757C96.2057 137.748 95.9646 137.71 95.726 137.646C95.4364 137.569 95.1817 137.446 94.962 137.277C94.7424 137.109 94.5898 136.895 94.5012 136.629C94.4126 136.363 94.4136 136.053 94.5094 135.695L95.6246 131.534L94.7428 131.297L95.0339 130.211L95.9156 130.447L96.5045 128.249L97.9102 128.626L97.3213 130.824L98.7781 131.214L98.487 132.301L97.0302 131.91L96.0361 135.62C95.9915 135.855 96.0194 136.04 96.126 136.188C96.2284 136.334 96.3754 136.433 96.5714 136.485C96.7673 136.538 96.9639 136.554 97.161 136.534C97.3582 136.513 97.5051 136.493 97.6017 136.474L97.5977 137.664L97.5966 137.668Z" fill="#3F3300"/><path d="M99.1852 135.369L99.5242 134.103L103.345 135.127L103.006 136.392L99.1852 135.369Z" fill="#3F3300"/><path d="M107.666 140.367C107.531 140.394 107.365 140.418 107.168 140.438C106.97 140.459 106.75 140.463 106.515 140.455C106.275 140.446 106.034 140.409 105.796 140.345C105.506 140.267 105.251 140.144 105.032 139.976C104.812 139.807 104.659 139.593 104.571 139.327C104.482 139.061 104.483 138.751 104.579 138.393L105.694 134.232L104.812 133.995L105.103 132.909L105.985 133.146L106.574 130.948L107.98 131.324L107.391 133.522L108.848 133.913L108.557 134.999L107.1 134.608L106.106 138.319C106.061 138.553 106.089 138.739 106.196 138.886C106.298 139.032 106.445 139.131 106.641 139.183C106.837 139.236 107.033 139.252 107.231 139.232C107.428 139.212 107.575 139.192 107.671 139.172L107.667 140.362L107.666 140.367Z" fill="#3F3300"/><path d="M111.431 141.855C110.903 141.713 110.454 141.497 110.086 141.202C109.718 140.907 109.423 140.559 109.206 140.158C108.989 139.758 108.857 139.33 108.805 138.877C108.753 138.425 108.789 137.965 108.914 137.5C109.038 137.036 109.237 136.619 109.509 136.249C109.782 135.879 110.11 135.575 110.497 135.341C110.884 135.106 111.313 134.952 111.783 134.886C112.254 134.816 112.746 134.852 113.27 134.992C113.794 135.133 114.239 135.348 114.607 135.643C114.98 135.939 115.275 136.283 115.493 136.679C115.711 137.076 115.843 137.504 115.899 137.961C115.95 138.418 115.913 138.878 115.789 139.343C115.664 139.807 115.466 140.224 115.194 140.589C114.923 140.955 114.591 141.259 114.202 141.497C113.814 141.735 113.385 141.89 112.914 141.96C112.443 142.03 111.951 141.994 111.431 141.855ZM110.354 137.9C110.241 138.322 110.23 138.721 110.319 139.105C110.408 139.49 110.576 139.818 110.822 140.089C111.069 140.361 111.379 140.549 111.754 140.649C112.129 140.75 112.479 140.738 112.835 140.619C113.19 140.504 113.505 140.301 113.775 140.008C114.045 139.715 114.235 139.365 114.346 138.951C114.457 138.538 114.47 138.131 114.381 137.746C114.292 137.362 114.12 137.033 113.872 136.752C113.622 136.475 113.313 136.282 112.95 136.185C112.588 136.088 112.212 136.097 111.86 136.217C111.508 136.337 111.198 136.542 110.93 136.826C110.662 137.11 110.471 137.466 110.355 137.896L110.354 137.9ZM113.986 134.212L113.141 133.684L114.246 132.474L115.588 132.833L113.986 134.212Z" fill="#3F3300"/><path d="M118.668 133.658L120.073 134.035L118.085 141.455C117.994 141.796 117.987 142.027 118.064 142.148C118.141 142.269 118.256 142.35 118.409 142.391C118.58 142.437 118.742 142.462 118.9 142.468C119.058 142.474 119.198 142.466 119.326 142.445L119.233 143.612C119.006 143.642 118.743 143.65 118.446 143.634C118.149 143.618 117.89 143.581 117.668 143.521C117.191 143.394 116.853 143.157 116.652 142.815C116.452 142.474 116.416 142.063 116.543 141.586L118.669 133.654L118.668 133.658Z" fill="#3F3300"/><defs><filter id="filter0_d_58_351" x="8.98555" y="8.31636" width="175.99" height="177.328" filterUnits="userSpaceOnUse" color-interpolation-filters="sRGB"><feFlood flood-opacity="0" result="BackgroundImageFix"/><feColorMatrix in="SourceAlpha" type="matrix" values="0 0 0 0 0 0 0 0 0 0 0 0 0 0 0 0 0 0 127 0" result="hardAlpha"/><feOffset/><feGaussianBlur stdDeviation="4.6"/><feComposite in2="hardAlpha" operator="out"/><feColorMatrix type="matrix" values="0 0 0 0 0 0 0 0 0 0 0 0 0 0 0 0 0 0 0.2 0"/><feBlend mode="normal" in2="BackgroundImageFix" result="effect1_dropShadow_58_351"/><feBlend mode="normal" in="SourceGraphic" in2="effect1_dropShadow_58_351" result="shape"/></filter><linearGradient id="paint0_linear_58_351" x1="57.1374" y1="27.9679" x2="136.824" y2="165.989" gradientUnits="userSpaceOnUse"><stop stop-color="#FFE57B"/><stop offset="1" stop-color="#FCD73B"/></linearGradient><linearGradient id="paint1_linear_58_351" x1="61.5737" y1="35.6518" x2="132.39" y2="158.309" gradientUnits="userSpaceOnUse"><stop stop-color="#FFCE1C"/><stop offset="1" stop-color="#FBC712"/></linearGradient></defs></svg>