<svg width="67" height="67" viewBox="0 0 67 67" fill="none" xmlns="http://www.w3.org/2000/svg"><g id="mingcute:time-fill" clip-path="url(#clip0_58_99)"><g id="Group"><path id="Vector" d="M29.4583 33.5V33.5003C29.4585 34.5721 29.8844 35.5999 30.6423 36.3576C30.6424 36.3577 30.6424 36.3577 30.6425 36.3578L39.0173 44.7326L39.025 44.7403L39.0328 44.7479C39.7951 45.4841 40.816 45.8915 41.8757 45.8822C42.9354 45.873 43.9491 45.448 44.6985 44.6986C45.4479 43.9493 45.8729 42.9356 45.8821 41.8759C45.8913 40.8161 45.484 39.7952 44.7477 39.0329L44.7402 39.0251L44.7325 39.0174L37.5416 31.8265V19.5417C37.5416 18.4698 37.1158 17.4418 36.3578 16.6838C35.5998 15.9259 34.5718 15.5 33.4999 15.5C32.428 15.5 31.4 15.9259 30.642 16.6838C29.8841 17.4418 29.4583 18.4698 29.4583 19.5417V33.5ZM33.4999 6.83337C48.2279 6.83337 60.1666 18.772 60.1666 33.5C60.1666 48.2281 48.2279 60.1667 33.4999 60.1667C18.7719 60.1667 6.83325 48.2281 6.83325 33.5C6.83325 18.772 18.7719 6.83337 33.4999 6.83337Z" fill="white" stroke="#428AF5" stroke-width="2.5"/></g></g><defs><clipPath id="clip0_58_99"><rect width="67" height="67" fill="white"/></clipPath></defs></svg>