<svg width="94" height="94" viewBox="0 0 94 94" fill="none" xmlns="http://www.w3.org/2000/svg">
<g id="washing-machine" clip-path="url(#clip0_58_292)">
<g id="Group">
<g id="Group_2">
<path id="Vector" d="M86.1077 92.4332H7.8927C6.14599 92.4493 4.71672 91.0467 4.7002 89.2998V4.69993C4.71672 2.95323 6.14581 1.55039 7.8927 1.56654H86.1077C87.8544 1.55039 89.2837 2.95304 89.3002 4.69993V89.2998C89.2837 91.0467 87.8544 92.4493 86.1077 92.4332Z" fill="#F6FCFF"/>
<path id="Vector_2" d="M86.1077 92.4332H7.8927C6.14599 92.4493 4.71672 91.0467 4.7002 89.2998V4.69993C4.71672 2.95323 6.14581 1.55039 7.8927 1.56654H86.1077C87.8544 1.55039 89.2837 2.95304 89.3002 4.69993V89.2998C89.2837 91.0467 87.8544 92.4493 86.1077 92.4332Z" fill="#7FACFA"/>
<path id="Vector_3" d="M4.70002 79.8999V4.70004C4.66807 3.00253 6.01748 1.60006 7.71517 1.56665H81.5849C83.2824 1.59988 84.632 3.00235 84.6001 4.70004V89.2999C84.632 90.9974 83.2826 92.3999 81.5849 92.4333H7.71517C6.01767 92.4 4.66807 90.9976 4.70002 89.2999V79.8999Z" fill="#F6FCFF"/>
<path id="Vector_4" d="M89.2998 81.4665V89.2997C89.2816 91.0471 87.8512 92.4494 86.1038 92.4331H7.89595C6.1485 92.4496 4.71813 91.0471 4.69995 89.2997V81.4663H89.2998V81.4665Z" fill="#7FACFA"/>
<path id="Vector_5" d="M84.6004 81.4665L84.5999 89.2997C84.6301 90.9979 83.2796 92.4 81.5814 92.4331H7.71847C6.02023 92.4 4.66972 90.9979 4.70001 89.2997L4.69946 81.4663H84.6004V81.4665Z" fill="#F6FCFF"/>
<path id="Vector_6" d="M89.3 4.69994V15.6665H4.7002V4.69994C4.71819 2.9525 6.14875 1.55003 7.89619 1.56655H86.104C87.8517 1.55021 89.282 2.9525 89.3 4.69994Z" fill="#7FACFA"/>
<path id="Vector_7" d="M84.5998 4.70004L84.6004 15.6666H4.6996L4.69997 4.70004C4.66949 3.0018 6.02019 1.5997 7.71843 1.56665H81.5815C83.2796 1.59988 84.6303 3.0018 84.5998 4.70004Z" fill="#F6FCFF"/>
<path id="Vector_8" d="M70.5001 81.4668H67.3667V92.4334H70.5001V81.4668Z" fill="#1E1E1E"/>
<path id="Vector_9" d="M23.5001 61.0999H17.2335C15.5051 61.0948 14.1052 59.6951 14.1001 57.9666V39.1666C14.1052 37.4382 15.505 36.0383 17.2335 36.0332H23.5001V61.0999Z" fill="#A4C2F7"/>
<path id="Vector_10" d="M73.1007 54.8332C69.9429 67.9654 57.4651 76.6628 44.0516 75.0811C30.6381 73.4997 20.5252 62.1387 20.5083 48.6321C20.4914 35.1257 30.5758 23.7394 43.9853 22.1244C57.395 20.5093 69.8944 29.1754 73.0851 42.2996" fill="#F6FCFF"/>
<path id="Vector_11" d="M47.2194 28.1997C46.1389 28.2036 45.0601 28.2873 43.992 28.4503C34.1152 30.0388 26.8528 38.5626 26.8528 48.5663C26.8528 58.5699 34.1152 67.0938 43.992 68.6822C45.0601 68.8455 46.1387 68.9292 47.2194 68.9328C56.048 68.927 63.8672 63.2332 66.5833 54.8329V42.2997C63.8672 33.8994 56.048 28.2058 47.2194 28.1997Z" fill="url(#paint0_linear_58_292)"/>
<path id="Vector_12" d="M62.6667 42.2998H78.3333C79.1985 42.2998 79.8999 43.0013 79.8999 43.8664V53.2664C79.8999 54.1317 79.1985 54.833 78.3333 54.833H62.6667C61.8014 54.833 61.1001 54.1315 61.1001 53.2664V43.8664C61.0999 43.0013 61.8014 42.2998 62.6667 42.2998Z" fill="#7FACFA"/>
<path id="Vector_13" d="M62.4566 42.2998H73.8431C74.5923 42.2998 75.1998 42.9073 75.1998 43.6566V53.4764C75.1998 54.2257 74.5923 54.8332 73.8431 54.8332H62.4566C61.7074 54.8332 61.0999 54.2257 61.0999 53.4764V43.6566C61.0999 42.9073 61.7074 42.2998 62.4566 42.2998Z" fill="#F6FCFF"/>
<path id="Vector_14" d="M4.7002 4.70004V89.2999C4.71837 91.0473 6.14875 92.4496 7.89619 92.4333L12.4082 92.4334C10.7138 92.3953 9.36916 90.9944 9.40019 89.2999V4.70004C9.36898 3.00547 10.7138 1.60465 12.4082 1.56665L7.89619 1.56683C6.14875 1.55031 4.71837 2.9526 4.7002 4.70004Z" fill="white"/>
</g>
<g id="Group_3">
<path id="Vector_15" d="M6.26669 17.2334V37.6V81.4667H3.1333V37.6V17.2334H6.26669Z" fill="white"/>
<g id="Group_4">
<path id="Vector_16" d="M4.69995 31.3333C5.11469 31.327 5.5118 31.1647 5.81234 30.8789C6.4182 30.2611 6.4182 29.2721 5.81234 28.6543L5.57753 28.4661C5.49014 28.4066 5.39522 28.3591 5.29516 28.3246C5.2063 28.2794 5.11102 28.248 5.01279 28.2311C4.90943 28.2135 4.80478 28.203 4.69995 28.1997C4.28521 28.2054 3.88792 28.3677 3.58756 28.6541C2.9962 29.2778 2.9962 30.255 3.58756 30.8787C3.73719 31.0201 3.91252 31.1319 4.10401 31.2077C4.29256 31.2883 4.49506 31.3309 4.69995 31.3333Z" fill="#428AF5"/>
<path id="Vector_17" d="M81.4665 6.26685C80.6012 6.26685 79.8999 6.96836 79.8999 7.83345V9.40005C79.8999 10.2653 80.6014 10.9667 81.4665 10.9667C82.3316 10.9667 83.0331 10.2651 83.0331 9.40005V7.83345C83.0331 6.96817 82.3318 6.26685 81.4665 6.26685Z" fill="#428AF5"/>
<path id="Vector_18" d="M75.1997 6.26685C74.3344 6.26685 73.6331 6.96836 73.6331 7.83345V9.40005C73.6331 10.2653 74.3346 10.9667 75.1997 10.9667C76.0649 10.9667 76.7663 10.2651 76.7663 9.40005V7.83345C76.7664 6.96817 76.0649 6.26685 75.1997 6.26685Z" fill="#428AF5"/>
<path id="Vector_19" d="M23.5 7.8335H12.5334C11.6681 7.8335 10.9668 8.53501 10.9668 9.4001C10.9668 10.2652 11.6683 10.9667 12.5334 10.9667H23.5C24.3653 10.9667 25.0666 10.2652 25.0666 9.4001C25.0666 8.53501 24.3653 7.8335 23.5 7.8335Z" fill="#428AF5"/>
<path id="Vector_20" d="M22.835 62.6669C28.4733 72.4561 39.4175 77.9263 50.6316 76.5603C61.8455 75.1944 71.1566 67.2567 74.2801 56.4003H78.3333C80.0631 56.3987 81.4648 54.9967 81.4666 53.2669V43.8669C81.465 42.1371 80.0631 40.7354 78.3333 40.7336H74.267C71.1469 29.8777 61.8381 21.9396 50.6257 20.5735C39.4133 19.2074 28.4708 24.6779 22.8352 34.467H17.2332C14.6387 34.4697 12.536 36.5724 12.5332 39.167V57.9669C12.536 60.5615 14.6387 62.6642 17.2332 62.6669H22.835ZM78.3355 53.2669H62.6665V43.8669H78.3331L78.3355 53.2669ZM62.6665 56.4001H64.284C60.6031 64.4379 51.8205 68.8261 43.1828 66.9433C34.5451 65.0606 28.3856 57.4154 28.3834 48.5752C28.3812 39.735 34.5376 32.0869 43.1742 30.2001C51.811 28.3135 60.5956 32.6977 64.2801 40.7336H62.6663C60.9365 40.7352 59.5348 42.1371 59.5329 43.8669V53.2669C59.5348 54.9966 60.9367 56.3985 62.6665 56.4001ZM47.2193 23.5002C58.0541 23.4591 67.6731 30.4261 71.0127 40.7336H67.6742C63.8953 30.856 53.6053 25.0826 43.2058 27.0048C32.8063 28.927 25.2601 37.9975 25.2615 48.573C25.263 59.1485 32.812 68.2167 43.2122 70.1358C53.6122 72.055 63.9006 66.2786 67.6766 56.3999H71.0235C67.0164 68.5737 54.4709 75.763 41.9419 73.0658C29.413 70.3686 20.9368 58.6539 22.2938 45.9098C23.6507 33.1657 34.4032 23.4987 47.2193 23.5002ZM15.6666 57.9669V39.167C15.6677 38.3022 16.3685 37.6014 17.2332 37.6003H21.2392C18.2795 44.612 18.2795 52.5221 21.2392 59.5337H17.2332C16.3685 59.5324 15.6677 58.8316 15.6666 57.9669Z" fill="#428AF5"/>
<path id="Vector_21" d="M7.89223 93.9999H86.1076C88.7183 94.0131 90.8473 91.9106 90.8665 89.2999V4.70005C90.8471 2.08935 88.7183 -0.0129731 86.1076 6.19904e-05H7.89223C5.28153 -0.0131567 3.15258 2.08935 3.1333 4.70005V23.5C3.1333 24.3653 3.83481 25.0666 4.6999 25.0666C5.565 25.0666 6.26651 24.3651 6.26651 23.5V17.2334H87.733V79.8999H6.26669V36.0334C6.26669 35.1681 5.56518 34.4668 4.70009 34.4668C3.83499 34.4668 3.13348 35.1683 3.13348 36.0334V89.2999C3.15258 91.9106 5.28153 94.0131 7.89223 93.9999ZM6.26669 89.2999V83.0333H67.3666V90.8667H7.89223C7.01116 90.8815 6.28413 90.181 6.26669 89.2999ZM6.26669 4.70005C6.28431 3.81917 7.01134 3.1184 7.89223 3.13345H29.7666V14.1H6.26669V4.70005ZM32.8998 14.1V3.13345H86.1074C86.9885 3.1184 87.7155 3.81917 87.733 4.70005V14.1H32.8998ZM87.7331 89.2999C87.7155 90.1808 86.9885 90.8815 86.1076 90.8665H70.4998V83.0331H87.7331V89.2999Z" fill="#428AF5"/>
</g>
</g>
</g>
</g>
<defs>
<linearGradient id="paint0_linear_58_292" x1="32.8093" y1="34.1621" x2="62.3135" y2="62.2334" gradientUnits="userSpaceOnUse">
<stop stop-color="#D4E1F4"/>
<stop offset="0.1717" stop-color="#D4E1F4"/>
<stop offset="0.2" stop-color="#D4E1F4"/>
<stop offset="0.2001" stop-color="#DAE4F4"/>
<stop offset="0.2007" stop-color="#EBEBF4"/>
<stop offset="0.2014" stop-color="#F6F1F4"/>
<stop offset="0.2023" stop-color="#FDF4F4"/>
<stop offset="0.205" stop-color="#FFF5F4"/>
<stop offset="0.2522" stop-color="#FFF5F4"/>
<stop offset="0.26" stop-color="#D4E1F4"/>
<stop offset="0.3974" stop-color="#D4E1F4"/>
<stop offset="0.42" stop-color="#D4E1F4"/>
<stop offset="0.4201" stop-color="#DAE4F4"/>
<stop offset="0.4207" stop-color="#EBEBF4"/>
<stop offset="0.4214" stop-color="#F6F1F4"/>
<stop offset="0.4223" stop-color="#FDF4F4"/>
<stop offset="0.425" stop-color="#FFF5F4"/>
<stop offset="0.4894" stop-color="#FFF5F4"/>
<stop offset="0.5" stop-color="#F9F2F4"/>
<stop offset="0.5001" stop-color="#E8EBF4"/>
<stop offset="0.5003" stop-color="#DDE5F4"/>
<stop offset="0.5005" stop-color="#D6E2F4"/>
<stop offset="0.501" stop-color="#D4E1F4"/>
<stop offset="0.7062" stop-color="#D4E1F4"/>
<stop offset="0.74" stop-color="#D4E1F4"/>
<stop offset="0.741" stop-color="#FFF5F4"/>
<stop offset="0.8346" stop-color="#FFF5F4"/>
<stop offset="0.85" stop-color="#FFF5F4"/>
<stop offset="0.851" stop-color="#D4E1F4"/>
</linearGradient>
<clipPath id="clip0_58_292">
<rect width="94" height="94" fill="white"/>
</clipPath>
</defs>
</svg>
