<svg width="99" height="98" viewBox="0 0 99 98" fill="none" xmlns="http://www.w3.org/2000/svg">
<g id="suits" clip-path="url(#clip0_58_172)">
<g id="Page-1">
<g id="026---Hanging-Suits">
<g id="Icons_copy">
<path id="Shape" d="M54.45 24.5L39.6 39.2L24.75 24.5H54.45Z" fill="#A4C2F7"/>
<g id="Group">
<path id="Shape_2" d="M39.5999 39.2L32.6864 48.7877C32.3769 49.2166 31.8783 49.4725 31.3458 49.4757C30.8134 49.479 30.3117 49.2291 29.9969 48.804L26.0204 43.365L19.6349 34.6757C19.3325 34.2778 19.1341 33.8121 19.0574 33.32C18.8846 32.4005 19.1256 31.4521 19.7174 30.723L24.7499 24.5L39.5999 39.2Z" fill="#F6FCFF"/>
<path id="Shape_3" d="M60.1424 33.32C60.0656 33.8121 59.8672 34.2778 59.5649 34.6757L53.1794 43.365L49.2029 48.804C48.8881 49.2291 48.3864 49.479 47.8539 49.4757C47.3214 49.4725 46.8228 49.2166 46.5134 48.7877L39.5999 39.2L54.4499 24.5L59.4824 30.723C60.0741 31.4521 60.3151 32.4005 60.1424 33.32Z" fill="#F6FCFF"/>
<path id="Shape_4" d="M77.5499 55.2882V91.4665C77.5544 93.5792 76.181 95.4534 74.1509 96.1052C73.654 96.2843 73.1286 96.3728 72.5999 96.3665L39.5999 96.3668V73.4835L57.4034 50.8455C58.5116 49.4348 58.269 47.4043 56.8589 46.2885L53.1794 43.3648L59.5649 34.6755C59.8672 34.2776 60.0656 33.8119 60.1424 33.3198L63.2609 35.3778L68.7389 38.9875C74.2371 42.6275 77.5413 48.7404 77.5499 55.2882Z" fill="#F6FCFF"/>
</g>
<path id="Shape_5" d="M73.2105 43.0545C71.9416 41.4779 70.4331 40.1059 68.739 38.9875L63.261 35.3778L60.1425 33.3198C60.0657 33.8119 59.8674 34.2776 59.565 34.6755L58.8076 35.7061L63.789 38.9875C69.2872 42.6275 72.5914 48.7404 72.6 55.2882V91.4665C72.6045 93.5792 71.2312 95.4534 69.201 96.1052C68.7042 96.2843 68.1787 96.3728 67.65 96.3665H72.6C73.1287 96.3728 73.6542 96.2843 74.151 96.1052C76.1812 95.4534 77.5545 93.5792 77.55 91.4665V55.2882C77.5496 50.8406 76.0191 46.5259 73.2105 43.0545Z" fill="#CAD9FC"/>
<path id="Shape_6" d="M39.5999 73.4835V96.3665H6.5999C3.86609 96.3665 1.6499 94.1727 1.6499 91.4665V55.2882C1.65112 48.7386 4.95707 42.6225 10.4609 38.9875L19.0574 33.3198C19.1341 33.8119 19.3325 34.2776 19.6349 34.6755L26.0204 43.3648L22.3409 46.2885C20.9307 47.4043 20.6881 49.4348 21.7964 50.8455L39.5999 73.4835Z" fill="#F6FCFF"/>
<path id="Shape_7" d="M39.6 39.2002V73.4839L21.7965 50.8459C20.6882 49.4351 20.9308 47.4047 22.341 46.2889L26.0205 43.3652L29.997 48.8042C30.3117 49.2293 30.8135 49.4792 31.3459 49.4759C31.8784 49.4727 32.377 49.2168 32.6865 48.7879L39.6 39.2002Z" fill="#CAD9FC"/>
<path id="Shape_8" d="M57.4034 50.8459L39.5999 73.4839V39.2002L46.5134 48.7879C46.8228 49.2168 47.3214 49.4727 47.8539 49.4759C48.3864 49.4792 48.8881 49.2293 49.2029 48.8042L53.1794 43.3652L56.8589 46.2889C58.269 47.4047 58.5116 49.4351 57.4034 50.8459Z" fill="#CAD9FC"/>
<path id="Shape_9" d="M74.25 24.5L63.261 35.378L60.1425 33.32C60.3152 32.4005 60.0742 31.4521 59.4825 30.723L54.45 24.5H74.25Z" fill="#A4C2F7"/>
<path id="Shape_10" d="M79.9425 33.32C79.8658 33.8121 79.6674 34.2778 79.365 34.6757L73.2105 43.0547C71.9416 41.4781 70.4331 40.1061 68.739 38.9877L63.261 35.378L74.25 24.5L79.2825 30.723C79.8742 31.4521 80.1153 32.4005 79.9425 33.32Z" fill="#CAD9FC"/>
<path id="Shape_11" d="M97.35 55.2882V91.4665C97.35 94.1727 95.1338 96.3665 92.4 96.3665H74.25L74.1509 96.1052C76.1811 95.4534 77.5545 93.5792 77.55 91.4665V55.2882C77.5496 50.8406 76.0191 46.5259 73.2104 43.0545L79.3649 34.6755C79.6673 34.2776 79.8657 33.8119 79.9425 33.3198L88.539 38.9875C94.0428 42.6225 97.3487 48.7386 97.35 55.2882Z" fill="#A4C2F7"/>
</g>
<g id="Icons_copy_2">
<path id="Shape_12" d="M79.2 96.3668L79.101 96.1055C78.6703 96.2688 79.1868 96.3374 74.4133 96.3668H79.2Z" fill="white"/>
<path id="Shape_13" d="M6.5999 96.3667C35.9006 96.3667 52.3379 96.3863 61.6208 96.3834C51.7802 96.3814 36.229 96.3667 11.5499 96.3667C8.81609 96.3667 6.5999 94.1729 6.5999 91.4667V55.2883C6.60112 48.7388 9.90707 42.6227 15.4109 38.9877L24.0074 33.32C23.8346 32.4005 24.0757 31.4521 24.6674 30.723L29.6999 24.5H24.7499L19.7174 30.723C19.1257 31.4521 18.8846 32.4005 19.0574 33.32L10.4609 38.9877C4.95707 42.6227 1.65112 48.7388 1.6499 55.2883V91.4667C1.6499 94.1729 3.86609 96.3667 6.5999 96.3667Z" fill="white"/>
</g>
<g id="Icons">
<path id="Rectangle-path" d="M0 78.3999H3.3V91.4666H0V78.3999Z" fill="white"/>
<g id="Group_2">
<path id="Oval" d="M1.65 86.5665C2.56127 86.5665 3.3 85.8352 3.3 84.9331C3.3 84.0311 2.56127 83.2998 1.65 83.2998C0.73873 83.2998 0 84.0311 0 84.9331C0 85.8352 0.73873 86.5665 1.65 86.5665Z" fill="#428AF5"/>
<path id="Oval_2" d="M46.2 84.9332C47.1113 84.9332 47.85 84.2019 47.85 83.2998C47.85 82.3978 47.1113 81.6665 46.2 81.6665C45.2888 81.6665 44.55 82.3978 44.55 83.2998C44.55 84.2019 45.2888 84.9332 46.2 84.9332Z" fill="#428AF5"/>
<path id="Oval_3" d="M46.2 91.4669C47.1113 91.4669 47.85 90.7356 47.85 89.8335C47.85 88.9315 47.1113 88.2002 46.2 88.2002C45.2888 88.2002 44.55 88.9315 44.55 89.8335C44.55 90.7356 45.2888 91.4669 46.2 91.4669Z" fill="#428AF5"/>
<path id="Shape_14" d="M11.5501 91.4669C12.4614 91.4669 13.2001 90.7356 13.2001 89.8335C13.2001 88.9315 12.4614 88.2002 11.5501 88.2002H8.2501C7.33883 88.2002 6.6001 88.9315 6.6001 89.8335C6.6001 90.7356 7.33883 91.4669 8.2501 91.4669H11.5501Z" fill="#428AF5"/>
<path id="Shape_15" d="M70.95 88.2002H67.65C66.7387 88.2002 66 88.9315 66 89.8335C66 90.7356 66.7387 91.4669 67.65 91.4669H70.95C71.8613 91.4669 72.6 90.7356 72.6 89.8335C72.6 88.9315 71.8613 88.2002 70.95 88.2002Z" fill="#428AF5"/>
<path id="Shape_16" d="M89.4548 37.6286L81.6305 32.4689C81.5765 31.4598 81.2056 30.4925 80.5695 29.702L75.537 23.479C75.5189 23.4562 75.4908 23.448 75.4727 23.4268C75.3795 23.3302 75.2748 23.2451 75.1608 23.1736C74.9952 23.0301 74.7865 22.9445 74.5668 22.9302C74.4932 22.9035 74.4176 22.8822 74.3408 22.8665C74.3259 22.8665 74.3111 22.8747 74.2962 22.8747C74.281 22.8712 74.2655 22.8685 74.25 22.8665H61.05V19.4741C61.0804 17.6907 62.0621 16.0564 63.6306 15.1784C66.7171 13.338 68.2505 9.73577 67.4256 6.2637C66.7204 3.26215 64.3528 0.918456 61.3206 0.220368C58.849 -0.35563 56.247 0.220291 54.2586 1.78347C52.2908 3.32861 51.1456 5.68022 51.15 8.16654C51.15 9.0686 51.8887 9.79987 52.8 9.79987C53.7113 9.79987 54.45 9.0686 54.45 8.16654C54.4505 5.79754 56.1631 3.76817 58.5179 3.34601C60.8728 2.92385 63.1955 4.22983 64.0353 6.44819C64.875 8.66654 63.9913 11.1619 61.9361 12.3756C59.3668 13.8385 57.7736 16.5402 57.75 19.4741V22.8665H41.25V19.4741C41.2804 17.6907 42.2621 16.0564 43.8306 15.1784C46.9171 13.338 48.4505 9.73577 47.6256 6.2637C46.9204 3.26215 44.5528 0.918456 41.5206 0.220368C39.049 -0.35563 36.447 0.220291 34.4586 1.78347C32.4908 3.32861 31.3456 5.68022 31.35 8.16654C31.35 9.0686 32.0887 9.79987 33 9.79987C33.9113 9.79987 34.65 9.0686 34.65 8.16654C34.6505 5.79754 36.3631 3.76817 38.7179 3.34601C41.0728 2.92385 43.3955 4.22983 44.2353 6.44819C45.075 8.66654 44.1913 11.1619 42.1361 12.3756C39.5668 13.8385 37.9736 16.5402 37.95 19.4741V22.8665H24.75C24.7345 22.869 24.719 22.8723 24.7038 22.8763C24.6873 22.8763 24.6741 22.8682 24.6576 22.8682C24.5805 22.8841 24.5044 22.9048 24.4299 22.9302C24.2996 22.9491 24.1722 22.9836 24.0504 23.0331C23.9746 23.0744 23.9028 23.1225 23.8359 23.1769C23.7233 23.2463 23.6202 23.3298 23.529 23.4251C23.5092 23.4464 23.4795 23.4562 23.4614 23.479L18.4338 29.7004C17.7995 30.4918 17.4288 31.4585 17.3729 32.4673L9.54526 37.6286C3.57561 41.5603 -0.00802328 48.1904 1.34891e-05 55.2882V78.3999C1.34891e-05 79.3019 0.738744 80.0332 1.65001 80.0332C2.56128 80.0332 3.30001 79.3019 3.30001 78.3999V55.2882C3.29257 49.2796 6.32865 43.6674 11.385 40.3432L18.3744 35.7339L23.76 43.0709L21.3164 45.0129C19.2199 46.6972 18.8586 49.7272 20.5013 51.8484L37.95 74.0438V94.7332H19.8V62.0665C19.8 61.1645 19.0613 60.4332 18.15 60.4332C17.2387 60.4332 16.5 61.1645 16.5 62.0665V94.7332H6.60001C4.77747 94.7332 3.30001 93.2707 3.30001 91.4665C3.30001 90.5645 2.56128 89.8332 1.65001 89.8332C0.738744 89.8332 1.34891e-05 90.5645 1.34891e-05 91.4665C1.34891e-05 95.0748 2.95493 97.9999 6.60001 97.9999H72.6C72.9687 97.9934 73.3363 97.9568 73.6989 97.8904C73.875 97.9576 74.0614 97.9946 74.25 97.9999H92.4C96.0451 97.9999 99 95.0748 99 91.4665V55.2882C99.0081 48.1904 95.4244 41.5603 89.4548 37.6286ZM78.0302 33.7086L73.0686 40.4657C72.0344 39.4021 70.8902 38.449 69.6548 37.6221L65.8598 35.1149L74.1131 26.9499L77.9955 31.7486C78.4492 32.323 78.4633 33.1254 78.0302 33.7151V33.7086ZM45.177 49.7381C45.7938 50.5934 46.7885 51.1028 47.85 51.1069H47.8649C48.9205 51.1065 49.9122 50.6062 50.5329 49.761L53.5029 45.7152L55.8278 47.5642C56.5246 48.1266 56.645 49.1348 56.1 49.8427L41.25 68.7273V44.2959L45.177 49.7381ZM51.9107 42.3293L51.8942 42.3424C51.8942 42.3522 51.8942 42.3636 51.8793 42.3718L47.8616 47.8402L41.7566 39.3763L54.3131 26.9499L58.1889 31.7453C58.6535 32.32 58.6724 33.1313 58.2351 33.7266L51.9107 42.3293ZM70.2669 26.1332L63.0531 33.2741L61.8272 32.4673C61.7712 31.4585 61.4006 30.4918 60.7662 29.7004L57.8837 26.1332H70.2669ZM50.4669 26.1332L39.6 36.8903L28.7331 26.1332H50.4669ZM21.0111 31.7404L24.887 26.9499L37.4451 39.3812L31.3401 47.8451L27.3257 42.38C27.3208 42.3688 27.3153 42.3579 27.3092 42.3473L27.291 42.3326L20.9682 33.7266C20.5274 33.131 20.545 32.3168 21.0111 31.7404ZM23.3739 47.5625L25.6971 45.7152L28.6671 49.761C29.2878 50.6062 30.2795 51.1065 31.3352 51.1069H31.35C32.411 51.1022 33.405 50.5929 34.0214 49.7381L37.95 44.2959V68.7273L23.1 49.8492C22.5508 49.1393 22.6723 48.1256 23.3739 47.5625ZM62.7 94.7332V62.0665C62.7 61.1645 61.9613 60.4332 61.05 60.4332C60.1388 60.4332 59.4 61.1645 59.4 62.0665V94.7332H41.25V74.0454L58.7103 51.8419C60.347 49.7201 59.9814 46.6943 57.8853 45.0145L55.44 43.0709L60.8273 35.7388L67.8233 40.3432C72.8758 43.6699 75.9084 49.2814 75.9 55.2882V91.4665C75.9 93.2707 74.4226 94.7332 72.6 94.7332H62.7ZM95.7 91.4665C95.7 93.2707 94.2226 94.7332 92.4 94.7332H78.2826C78.8765 93.7445 79.1932 92.6168 79.2 91.4665V55.2882C79.2017 50.9002 77.8272 46.6199 75.2664 43.0382L80.6273 35.7405L87.6233 40.353C92.6729 43.6778 95.7051 49.2848 95.7 55.2882V91.4665Z" fill="#428AF5"/>
<path id="Shape_17" d="M87.45 88.2002C86.5388 88.2002 85.8 88.9315 85.8 89.8335C85.8 90.7356 86.5388 91.4669 87.45 91.4669H90.75C91.6613 91.4669 92.4 90.7356 92.4 89.8335C92.4 88.9315 91.6613 88.2002 90.75 88.2002H87.45Z" fill="#428AF5"/>
</g>
</g>
</g>
</g>
</g>
<defs>
<clipPath id="clip0_58_172">
<rect width="99" height="98" fill="white"/>
</clipPath>
</defs>
</svg>
