<svg width="98" height="98" viewBox="0 0 98 98" fill="none" xmlns="http://www.w3.org/2000/svg">
<g id="bleach" clip-path="url(#clip0_58_328)">
<g id="Page-1">
<g id="037---Bleach">
<path id="Shape" d="M36.3741 47.0564L56.9214 27.8974C58.1261 26.7586 59.7227 26.127 61.3804 26.1334H86.5664V17.9667C86.5664 14.3584 83.6414 11.4333 80.0331 11.4333H27.7664C18.7458 11.4333 11.4331 18.746 11.4331 27.7667V89.8334C11.4331 93.4416 14.3582 96.3667 17.9664 96.3667H80.0331C83.6414 96.3667 86.5664 93.4416 86.5664 89.8334V81.6667H37.5664C35.7645 81.6613 34.3052 80.2019 34.2998 78.4V51.842C34.3004 50.0287 35.0512 48.2965 36.3741 47.0564ZM17.9664 44.1V27.7667C17.9664 22.3543 22.354 17.9667 27.7664 17.9667H44.0998C44.0998 17.9667 22.8664 22.8667 17.9664 44.1Z" fill="#F6FCFF"/>
<path id="Shape_2" d="M80.0333 11.4333H75.1333C78.7416 11.4333 81.6666 14.3584 81.6666 17.9667V26.1334H86.5666V17.9667C86.5666 14.3584 83.6416 11.4333 80.0333 11.4333Z" fill="#CAD9FC"/>
<path id="Shape_3" d="M81.6666 89.8332C81.6666 93.4414 78.7416 96.3665 75.1333 96.3665H80.0333C83.6416 96.3665 86.5666 93.4414 86.5666 89.8332V81.6665H81.6666V89.8332Z" fill="#CAD9FC"/>
<path id="Shape_4" d="M86.5665 26.1333V81.6667H37.5665C35.7646 81.6613 34.3052 80.2019 34.2998 78.4V51.842C34.3004 50.0287 35.0512 48.2965 36.3741 47.0563L56.9215 27.8973C58.1262 26.7586 59.7228 26.127 61.3805 26.1333L86.5665 26.1333Z" fill="white"/>
<path id="Rectangle-path" d="M81.6665 26.1333H86.5665V81.6666H81.6665V26.1333Z" fill="#F6FCFF"/>
<path id="Shape_5" d="M55.5333 1.6333H75.1333C76.9374 1.6333 78.3999 3.09584 78.3999 4.89997V11.4333H52.2666V4.89997C52.2666 3.09584 53.7291 1.6333 55.5333 1.6333Z" fill="#F6FCFF"/>
<path id="Shape_6" d="M75.1329 1.6333H70.2329C72.037 1.6333 73.4996 3.09584 73.4996 4.89997V11.4333H78.3996V4.89997C78.3996 3.09584 76.937 1.6333 75.1329 1.6333Z" fill="#CAD9FC"/>
<path id="Shape_7" d="M17.9664 96.3667H22.8664C19.2582 96.3667 16.3331 93.4416 16.3331 89.8334V27.7667C16.3331 18.746 23.6458 11.4333 32.6664 11.4333H27.7664C18.7458 11.4333 11.4331 18.746 11.4331 27.7667V89.8334C11.4331 93.4416 14.3582 96.3667 17.9664 96.3667Z" fill="white"/>
<path id="Rectangle-path_2" d="M9.7998 27.7666H13.0665V40.8333H9.7998V27.7666Z" fill="white"/>
<g id="Group">
<path id="Shape_8" d="M9.7998 89.8333C9.8052 94.3414 13.4584 97.9946 17.9665 98H80.0331C84.5412 97.9946 88.1944 94.3414 88.1998 89.8333V17.9667C88.1944 13.4586 84.5412 9.8054 80.0331 9.8V4.9C80.0331 2.1938 77.8393 0 75.1331 0H55.5331C52.827 0 50.6331 2.1938 50.6331 4.9V9.8H27.7665C17.8486 9.8117 9.81151 17.8488 9.7998 27.7667C9.7998 28.6687 10.5311 29.4 11.4331 29.4C12.3352 29.4 13.0665 28.6687 13.0665 27.7667C13.0755 19.6518 19.6516 13.0757 27.7665 13.0667H80.0331C82.7393 13.0667 84.9332 15.2605 84.9332 17.9667V24.5H61.3739C59.3051 24.4976 57.313 25.2831 55.8026 26.6968L35.2602 45.8689C33.6085 47.4154 32.6698 49.576 32.6665 51.8387V78.4C32.6665 81.1062 34.8603 83.3 37.5665 83.3H84.9332V89.8333C84.9332 92.5395 82.7393 94.7333 80.0331 94.7333H17.9665C15.2603 94.7333 13.0665 92.5395 13.0665 89.8333V40.8333C13.0665 39.9313 12.3352 39.2 11.4331 39.2C10.5311 39.2 9.7998 39.9313 9.7998 40.8333V89.8333ZM53.8998 9.8V4.9C53.8998 3.99793 54.6311 3.26667 55.5331 3.26667H57.1665V4.9C57.1665 5.80206 57.8977 6.53333 58.7998 6.53333C59.7019 6.53333 60.4331 5.80206 60.4331 4.9V3.26667H63.6998V4.9C63.6998 5.80206 64.4311 6.53333 65.3331 6.53333C66.2352 6.53333 66.9665 5.80206 66.9665 4.9V3.26667H70.2331V4.9C70.2331 5.80206 70.9644 6.53333 71.8665 6.53333C72.7685 6.53333 73.4998 5.80206 73.4998 4.9V3.26667H75.1331C76.0352 3.26667 76.7665 3.99793 76.7665 4.9V9.8H53.8998ZM37.5665 80.0333C36.6644 80.0333 35.9331 79.3021 35.9331 78.4V51.8387C35.9357 50.4812 36.499 49.185 37.4897 48.2568L58.0321 29.0848C58.938 28.2365 60.1329 27.7652 61.3739 27.7667L84.9332 27.7667V80.0333H37.5665Z" fill="#428AF5"/>
<path id="Shape_9" d="M11.4936 35.9332C10.5915 35.9377 9.85658 35.2101 9.85207 34.308C9.84756 33.4059 10.5752 32.671 11.4772 32.6665H11.4936C12.3956 32.6665 13.1269 33.3978 13.1269 34.2998C13.1269 35.2019 12.3956 35.9332 11.4936 35.9332Z" fill="#428AF5"/>
<path id="Shape_10" d="M17.9663 45.7333C18.7266 45.733 19.3861 45.2082 19.5572 44.4674C24.1616 24.5179 44.263 19.5999 44.4704 19.5575C45.279 19.3694 45.8179 18.6047 45.7231 17.78C45.6282 16.9553 44.9298 16.3329 44.0997 16.3333H27.7663C21.4549 16.3405 16.3402 21.4551 16.333 27.7666V44.0999C16.3327 44.9308 16.9562 45.6296 17.7818 45.7235C17.8431 45.7299 17.9047 45.7332 17.9663 45.7333ZM19.5997 27.7666C19.6051 23.2585 23.2583 19.6053 27.7663 19.5999H35.6537C28.8732 23.0298 23.28 28.4181 19.5997 35.066V27.7666Z" fill="#428AF5"/>
<path id="Shape_11" d="M58.7998 39.1998H80.0332C80.9352 39.1998 81.6665 38.4685 81.6665 37.5664C81.6665 36.6644 80.9352 35.9331 80.0332 35.9331H58.7998C57.8978 35.9331 57.1665 36.6644 57.1665 37.5664C57.1665 38.4685 57.8978 39.1998 58.7998 39.1998Z" fill="#428AF5"/>
<path id="Shape_12" d="M49 47.3668H55.5334C56.4354 47.3668 57.1667 46.6355 57.1667 45.7334C57.1667 44.8314 56.4354 44.1001 55.5334 44.1001H49C48.098 44.1001 47.3667 44.8314 47.3667 45.7334C47.3667 46.6355 48.098 47.3668 49 47.3668Z" fill="#428AF5"/>
<path id="Shape_13" d="M80.0331 44.1001H62.0664C61.1644 44.1001 60.4331 44.8314 60.4331 45.7334C60.4331 46.6355 61.1644 47.3668 62.0664 47.3668H80.0331C80.9352 47.3668 81.6664 46.6355 81.6664 45.7334C81.6664 44.8314 80.9352 44.1001 80.0331 44.1001Z" fill="#428AF5"/>
<path id="Shape_14" d="M80.033 52.2666H42.4663C41.5643 52.2666 40.833 52.9979 40.833 53.8999C40.833 54.802 41.5643 55.5333 42.4663 55.5333H80.033C80.9351 55.5333 81.6663 54.802 81.6663 53.8999C81.6663 52.9979 80.9351 52.2666 80.033 52.2666Z" fill="#428AF5"/>
<path id="Shape_15" d="M42.4663 63.6998H53.8997C54.8017 63.6998 55.533 62.9685 55.533 62.0664C55.533 61.1644 54.8017 60.4331 53.8997 60.4331H42.4663C41.5643 60.4331 40.833 61.1644 40.833 62.0664C40.833 62.9685 41.5643 63.6998 42.4663 63.6998Z" fill="#428AF5"/>
<path id="Shape_16" d="M80.0331 60.4331H60.4331C59.5311 60.4331 58.7998 61.1644 58.7998 62.0664C58.7998 62.9685 59.5311 63.6998 60.4331 63.6998H80.0331C80.9352 63.6998 81.6665 62.9685 81.6665 62.0664C81.6665 61.1644 80.9352 60.4331 80.0331 60.4331Z" fill="#428AF5"/>
<path id="Shape_17" d="M80.033 68.6001H42.4663C41.5643 68.6001 40.833 69.3314 40.833 70.2334C40.833 71.1355 41.5643 71.8668 42.4663 71.8668H80.033C80.9351 71.8668 81.6663 71.1355 81.6663 70.2334C81.6663 69.3314 80.9351 68.6001 80.033 68.6001Z" fill="#428AF5"/>
</g>
</g>
</g>
</g>
<defs>
<clipPath id="clip0_58_328">
<rect width="98" height="98" fill="white"/>
</clipPath>
</defs>
</svg>
