<svg width="98" height="98" viewBox="0 0 98 98" fill="none" xmlns="http://www.w3.org/2000/svg">
<g id="laundry">
<g id="Page-1">
<g id="022---Laundry">
<path id="Shape" d="M47.8644 35.2799V96.3666H26.6311C21.2187 96.3666 16.8311 91.979 16.8311 86.5666V59.5022C23.3481 64.0266 23.3481 73.4999 23.3481 73.4999C23.3481 73.4999 23.3481 57.1666 38.0644 57.1666C23.3481 57.1666 23.3481 40.8332 23.3481 40.8332C23.3481 40.8332 23.3481 50.3066 16.8311 54.8309V27.7666C16.8311 22.3542 21.2187 17.9666 26.6311 17.9666H27.2517L26.5331 19.5346C25.5568 21.6552 25.533 24.0919 26.4677 26.2312L34.3077 44.1652C34.7642 45.2013 35.7246 45.9271 36.8459 46.0835C37.9672 46.2399 39.0895 45.8045 39.8121 44.9329L47.8644 35.2799Z" fill="#F6FCFF"/>
<path id="Shape_2" d="M88.6976 27.7666V86.5666C88.6976 91.979 84.31 96.3666 78.8976 96.3666H47.8643V35.2799L52.7643 29.3999L65.7166 44.9329C66.4391 45.8045 67.5615 46.2399 68.6828 46.0835C69.8041 45.9271 70.7645 45.2013 71.2209 44.1652L79.0609 26.2312C79.9956 24.0919 79.9718 21.6552 78.9956 19.5346L78.2769 17.9666H78.8976C84.31 17.9666 88.6976 22.3542 88.6976 27.7666Z" fill="#F6FCFF"/>
<path id="Shape_3" d="M60.8168 44.9329C61.4264 45.6698 62.3292 46.1014 63.2855 46.113C64.2418 46.1247 65.1548 45.7152 65.7821 44.9933C65.7625 44.9705 65.7364 44.9574 65.7168 44.9329L52.7645 29.3999L50.3145 32.3399L60.8168 44.9329Z" fill="#CAD9FC"/>
<path id="Shape_4" d="M78.8978 17.9666H78.2771L78.8798 19.2732C81.9208 21.0204 83.7963 24.2594 83.7978 27.7666V86.5666C83.7978 91.979 79.4102 96.3666 73.9978 96.3666H78.8978C84.3102 96.3666 88.6978 91.979 88.6978 86.5666V27.7666C88.6978 22.3542 84.3102 17.9666 78.8978 17.9666Z" fill="#CAD9FC"/>
<path id="Shape_5" d="M52.7644 29.4001L47.8644 35.2801L39.8121 44.9331C39.0896 45.8047 37.9672 46.2401 36.8459 46.0837C35.7246 45.9273 34.7642 45.2015 34.3078 44.1654L26.4678 26.2314C25.5331 24.0921 25.5569 21.6554 26.5331 19.5348L27.2518 17.9668L33.8341 3.70776L43.1441 16.3334L52.7644 29.4001Z" fill="#F6FCFF"/>
<path id="Shape_6" d="M62.3847 16.3333L52.7644 29.3999L43.144 16.3333H62.3847Z" fill="#7FACFA"/>
<path id="Shape_7" d="M71.6947 3.70764L62.3846 16.3333H43.144L33.834 3.70764L33.9156 3.52798C34.4515 2.37009 35.6125 1.63015 36.8883 1.63331H68.6403C69.9162 1.63015 71.0771 2.37009 71.613 3.52798L71.6947 3.70764Z" fill="#A4C2F7"/>
<path id="Shape_8" d="M79.0611 26.2314L71.2211 44.1654C70.7646 45.2015 69.8042 45.9273 68.6829 46.0837C67.5616 46.2401 66.4393 45.8047 65.7167 44.9331L52.7644 29.4001L62.3847 16.3334L71.6947 3.70776L78.2771 17.9668L78.9957 19.5348C79.972 21.6554 79.9957 24.0921 79.0611 26.2314Z" fill="#F6FCFF"/>
<path id="Shape_9" d="M78.9957 19.5348L78.277 17.9668L71.6946 3.70776L68.6811 7.7911L73.377 17.9668L74.0956 19.5348C75.0719 21.6554 75.0957 24.0921 74.161 26.2314L66.321 44.1654C66.1842 44.4671 66.0025 44.7463 65.782 44.9935C66.5143 45.8352 67.6264 46.2435 68.7293 46.0755C69.8322 45.9076 70.7724 45.1869 71.221 44.1654L79.061 26.2314C79.9957 24.0921 79.9719 21.6554 78.9957 19.5348Z" fill="#CAD9FC"/>
<path id="Shape_10" d="M38.0643 57.1668C23.3479 57.1668 23.3479 73.5002 23.3479 73.5002C23.3479 73.5002 23.3479 64.0268 16.8309 59.5025C14.4061 57.8927 11.5408 57.0765 8.63159 57.1668C11.5408 57.2572 14.4061 56.441 16.8309 54.8312C23.3479 50.3068 23.3479 40.8335 23.3479 40.8335C23.3479 40.8335 23.3479 57.1668 38.0643 57.1668Z" fill="#F6FCFF"/>
<path id="Shape_11" d="M41.3311 80.0334C33.1645 80.0334 33.1645 70.2334 33.1645 70.2334C33.1645 70.2334 33.1645 80.0334 24.9978 80.0334C33.1645 80.0334 33.1645 89.8334 33.1645 89.8334C33.1645 89.8334 33.1645 80.0334 41.3311 80.0334Z" fill="#F6FCFF"/>
<path id="Shape_12" d="M21.7309 86.5667V59.5023C19.3061 57.8925 16.4408 57.0763 13.5316 57.1667C16.4408 57.257 19.3061 56.4408 21.7309 54.831V27.7667C21.7309 22.3543 26.1185 17.9667 31.5309 17.9667H32.1516C32.3149 17.5992 38.6849 3.80892 38.8156 3.52799C39.3515 2.3701 40.5124 1.63016 41.7883 1.63331L36.8883 1.63332C35.6124 1.63016 34.4515 2.3701 33.9156 3.52799C33.7882 3.80892 27.4215 17.5992 27.2516 17.9667H26.6309C21.2185 17.9667 16.8309 22.3543 16.8309 27.7667V54.831C14.4061 56.4408 11.5408 57.257 8.63159 57.1667C11.5408 57.0763 14.4061 57.8925 16.8309 59.5023V86.5667C16.8309 91.979 21.2185 96.3667 26.6309 96.3667H31.5309C26.1185 96.3667 21.7309 91.979 21.7309 86.5667Z" fill="white"/>
<path id="Rectangle-path" d="M15.1978 27.7666H18.4644V40.8333H15.1978V27.7666Z" fill="white"/>
<g id="Group">
<path id="Shape_13" d="M16.8637 35.9332C15.9616 35.9377 15.2267 35.2101 15.2222 34.308C15.2177 33.4059 15.9453 32.671 16.8474 32.6665H16.8637C17.7658 32.6665 18.497 33.3978 18.497 34.2998C18.497 35.2019 17.7658 35.9332 16.8637 35.9332Z" fill="#428AF5"/>
<path id="Shape_14" d="M79.3289 16.3546L73.0945 2.84037C72.2856 1.11051 70.55 0.00376661 68.6404 0H36.8884C34.9738 0.00521719 33.2351 1.11746 32.4277 2.85343L26.2015 16.3546C20.0636 16.5853 15.2048 21.6245 15.1977 27.7667C15.1977 28.6687 15.929 29.4 16.831 29.4C17.7331 29.4 18.4644 28.6687 18.4644 27.7667C18.4768 24.0296 21.0243 20.7777 24.6498 19.8711C23.8925 22.1696 24.0088 24.6665 24.9765 26.8847L32.8165 44.8236C33.4979 46.3853 34.945 47.4782 36.6336 47.7064C36.8593 47.7371 37.0869 47.7524 37.3147 47.7521C38.7696 47.7543 40.1486 47.1032 41.0713 45.9783L46.231 39.7847V94.7333H26.631C22.1229 94.7279 18.4698 91.0748 18.4644 86.5667V63.339C20.5104 66.3392 21.6402 69.8694 21.7163 73.5C21.7042 74.4021 22.4256 75.1432 23.3276 75.1554C24.2297 75.1676 24.9708 74.4462 24.983 73.5441V73.5098V73.5C24.983 72.8989 25.1316 58.8 38.0644 58.8C38.9664 58.8 39.6977 58.0687 39.6977 57.1667C39.6977 56.2646 38.9664 55.5333 38.0644 55.5333C25.1823 55.5333 24.9846 41.4311 24.983 40.8333C24.9952 39.9313 24.2738 39.1901 23.3717 39.1779C22.4697 39.1658 21.7285 39.8872 21.7163 40.7892V40.8235V40.8333C21.6558 44.4772 20.5249 48.0227 18.4644 51.0286V40.8333C18.4644 39.9313 17.7331 39.2 16.831 39.2C15.929 39.2 15.1977 39.9313 15.1977 40.8333V53.8918C13.1973 55.02 10.9293 55.5871 8.63333 55.5333C7.73127 55.5333 7 56.2646 7 57.1667C7 58.0687 7.73127 58.8 8.63333 58.8C10.931 58.7461 13.2001 59.318 15.1977 60.4546V86.5667C15.2049 92.8781 20.3196 97.9928 26.631 98H78.8977C85.2092 97.9928 90.3238 92.8781 90.331 86.5667V27.7667C90.324 21.6251 85.4661 16.5862 79.3289 16.3546ZM23.3497 48.9412C24.6889 52.4778 27.2744 55.403 30.6196 57.1667C27.2744 58.9303 24.6889 61.8556 23.3497 65.3921C22.0096 61.856 19.4244 58.931 16.0797 57.1667C19.4244 55.4023 22.0096 52.4773 23.3497 48.9412ZM77.5126 20.219C78.2921 21.9165 78.3111 23.8657 77.5649 25.578L69.7249 43.5071C69.4961 44.0258 69.0147 44.3888 68.453 44.466C67.8913 44.5433 67.3298 44.3237 66.9695 43.886L54.8387 29.3379L71.3697 6.90247L77.5126 20.219ZM52.7644 26.6462L46.3699 17.9667H59.1589L52.7644 26.6462ZM36.8884 3.26667H68.6404C69.03 3.26735 69.4069 3.40495 69.7053 3.6554L61.5664 14.7H43.9623L35.8251 3.65703C36.1224 3.40562 36.499 3.26736 36.8884 3.26667ZM38.5544 43.8926C38.1933 44.3262 37.634 44.5428 37.075 44.4654C36.5161 44.3879 36.0367 44.0275 35.8071 43.512L27.9671 25.5796C27.2195 23.8672 27.2379 21.9171 28.0177 20.219L34.1607 6.90247L50.69 29.3379L38.5544 43.8926ZM87.0644 86.5667C87.059 91.0748 83.4058 94.7279 78.8977 94.7333H49.4977V35.868L52.7644 31.948L64.4574 45.9685C65.5413 47.2775 67.2259 47.9313 68.909 47.6964C70.5921 47.4614 72.0333 46.3711 72.7172 44.8154L80.5572 26.8798C81.5249 24.6622 81.6412 22.1658 80.8838 19.8679C84.5085 20.7767 87.054 24.0298 87.0644 27.7667V86.5667Z" fill="#428AF5"/>
<path id="Shape_15" d="M56.0311 45.7334H54.3977C53.4957 45.7334 52.7644 46.4647 52.7644 47.3667C52.7644 48.2688 53.4957 49.0001 54.3977 49.0001H56.0311C56.9331 49.0001 57.6644 48.2688 57.6644 47.3667C57.6644 46.4647 56.9331 45.7334 56.0311 45.7334Z" fill="#428AF5"/>
<path id="Shape_16" d="M56.0311 55.5332H54.3977C53.4957 55.5332 52.7644 56.2645 52.7644 57.1665C52.7644 58.0686 53.4957 58.7999 54.3977 58.7999H56.0311C56.9331 58.7999 57.6644 58.0686 57.6644 57.1665C57.6644 56.2645 56.9331 55.5332 56.0311 55.5332Z" fill="#428AF5"/>
<path id="Shape_17" d="M56.0311 65.3335H54.3977C53.4957 65.3335 52.7644 66.0648 52.7644 66.9668C52.7644 67.8689 53.4957 68.6002 54.3977 68.6002H56.0311C56.9331 68.6002 57.6644 67.8689 57.6644 66.9668C57.6644 66.0648 56.9331 65.3335 56.0311 65.3335Z" fill="#428AF5"/>
<path id="Shape_18" d="M56.0311 75.1333H54.3977C53.4957 75.1333 52.7644 75.8646 52.7644 76.7666C52.7644 77.6687 53.4957 78.4 54.3977 78.4H56.0311C56.9331 78.4 57.6644 77.6687 57.6644 76.7666C57.6644 75.8646 56.9331 75.1333 56.0311 75.1333Z" fill="#428AF5"/>
<path id="Shape_19" d="M56.0311 84.9331H54.3977C53.4957 84.9331 52.7644 85.6644 52.7644 86.5664C52.7644 87.4685 53.4957 88.1998 54.3977 88.1998H56.0311C56.9331 88.1998 57.6644 87.4685 57.6644 86.5664C57.6644 85.6644 56.9331 84.9331 56.0311 84.9331Z" fill="#428AF5"/>
<path id="Shape_20" d="M34.7976 70.2334C34.7976 69.3314 34.0663 68.6001 33.1643 68.6001C32.2622 68.6001 31.5309 69.3314 31.5309 70.2334C31.5309 70.5601 31.4574 78.4001 24.9976 78.4001C24.0955 78.4001 23.3643 79.1314 23.3643 80.0334C23.3643 80.9355 24.0955 81.6668 24.9976 81.6668C31.4166 81.6668 31.5309 89.5068 31.5309 89.8334C31.5309 90.7355 32.2622 91.4668 33.1643 91.4668C34.0663 91.4668 34.7976 90.7355 34.7976 89.8334C34.7976 89.5068 34.8711 81.6668 41.3309 81.6668C42.233 81.6668 42.9643 80.9355 42.9643 80.0334C42.9643 79.1314 42.233 78.4001 41.3309 78.4001C34.9119 78.4001 34.7976 70.5601 34.7976 70.2334ZM33.1643 83.2511C32.5009 81.985 31.5601 80.885 30.4121 80.0334C31.5601 79.1818 32.5009 78.0819 33.1643 76.8158C33.8276 78.0819 34.7684 79.1818 35.9164 80.0334C34.7684 80.885 33.8276 81.985 33.1643 83.2511Z" fill="#428AF5"/>
</g>
</g>
</g>
</g>
</svg>
