<svg width="88" height="106" viewBox="0 0 88 106" fill="none" xmlns="http://www.w3.org/2000/svg"><g id="Layer_1" clip-path="url(#clip0_58_638)"><g id="a8xMeJ"><g id="Group"><path id="Vector" d="M71.6918 72.5205C71.0652 70.0464 69.6544 68.8128 67.4592 68.8197C61.3573 68.8439 55.2555 68.875 49.1502 68.8922C48.6008 68.8922 48.048 68.837 47.4882 68.6782C55.9327 67.4872 64.2873 65.9958 72.4243 62.6403C73.3779 65.1431 74.2313 67.4906 75.1712 69.8036C76.5221 73.1385 75.7516 72.4377 79.0133 72.4998C81.1417 72.5412 83.2736 72.5032 85.4054 72.5101C86.5594 72.5136 87.983 72.3652 87.9795 74.0119C87.9726 75.5757 86.5732 75.3996 85.4987 75.3996C78.533 75.4066 71.5639 75.3927 64.5983 75.3927C44.1575 75.3893 23.7166 75.3858 3.27575 75.3858C2.93023 75.3858 2.58471 75.3789 2.23919 75.3858C1.14045 75.4135 -0.0170387 75.3479 0.00369239 73.9083C0.0244235 72.4377 1.23719 72.5205 2.29793 72.5205C24.6391 72.5205 46.9803 72.5205 69.3181 72.5136C70.0575 72.5136 70.7969 72.5136 71.6918 72.5136V72.5205Z" fill="white"/><path id="Vector_2" d="M79.2036 51.7348C78.9375 49.3804 78.0081 47.492 76.0939 46.0179C72.7182 43.415 70.2754 40.0629 69.263 35.9099C68.4511 32.5785 68.9313 29.4991 68.5582 26.0883C68.3716 24.3898 66.7753 23.0676 65.2516 22.3082C60.2657 19.826 55.0553 19.6638 49.7447 20.6753C31.4184 24.1654 15.8148 40.6877 13.1405 59.4953C14.0216 59.4159 14.8681 59.3711 15.7112 59.2571C23.0569 58.2871 30.0605 56.0086 37.0435 53.6715C42.1295 51.9695 47.1119 50.019 51.4688 46.7947C53.6732 45.1618 54.3781 43.5427 53.5765 42.2343C52.7403 40.8707 50.7087 40.7464 48.411 41.9512C46.2723 43.0732 44.175 44.278 42.0155 45.3585C40.2464 46.2423 38.3668 47.1054 36.5597 45.5001C35.3331 44.4092 35.4783 41.9995 37.002 39.7453C41.0411 33.7626 46.8354 30.6625 53.9393 30.1619C58.1546 29.865 60.5421 32.4128 60.2899 36.6659C59.9893 41.6958 57.4809 45.6692 53.5178 48.5691C50.8469 50.5196 47.9273 52.2526 44.8971 53.5679C35.3677 57.7036 25.2889 60.1547 15.224 62.5609C12.7916 63.1443 11.2955 64.1247 11.019 66.8692C13.0887 66.8692 15.0927 66.8692 17.0967 66.8692C32.3824 66.8762 47.4401 65.2018 62.0279 60.455C67.2694 58.7497 72.231 57.5345 77.5416 54.683C78.9824 54.1513 79.3763 53.202 79.2105 51.7348H79.2036ZM21.0425 46.805C24.8778 32.72 43.94 21.1517 57.2148 23.3991C41.1793 25.0803 28.9929 32.6786 21.0425 46.805Z" fill="white"/></g></g><path id="Vector_3" d="M3.94213 56.0569C3.47223 54.1893 2.37348 53.0397 0.338379 52.5081C2.37348 51.8314 3.56206 50.9546 3.94213 48.9281C4.33257 50.9995 5.82866 52.0179 7.58389 52.5081C5.82866 53.1605 4.4224 54.2066 3.94213 56.0569Z" fill="white"/><path id="Vector_4" d="M8.61717 41.5542C7.97105 38.9685 6.44732 37.377 3.63135 36.6452C6.44732 35.7096 8.09199 34.4979 8.61717 31.6947C9.15618 34.56 11.2293 35.9685 13.6583 36.6452C11.2293 37.5462 9.28402 38.9961 8.61717 41.5542Z" fill="white"/><path id="Vector_5" d="M21.0077 28.8604C20.2061 25.6672 18.3265 23.7028 14.8506 22.7984C18.33 21.6419 20.3581 20.1436 21.0077 16.6845C21.6746 20.223 24.2349 21.9629 27.234 22.7984C24.2349 23.91 21.8301 25.7017 21.0077 28.8604Z" fill="white"/><path id="Vector_6" d="M37.4127 18.9146C36.5213 15.3589 34.424 13.1702 30.5542 12.1621C34.4275 10.8744 36.6871 9.20703 37.4127 5.35437C38.1556 9.29334 41.0061 11.2335 44.3473 12.1621C41.0061 13.4015 38.3284 15.3934 37.4127 18.9146Z" fill="white"/><path id="Vector_7" d="M57.9294 15.5556C56.9067 11.4751 54.5019 8.96538 50.0654 7.80889C54.5088 6.33135 57.1002 4.41882 57.9294 0C58.7829 4.51894 62.048 6.74561 65.8798 7.80889C62.048 9.2312 58.9763 11.5166 57.9294 15.5556Z" fill="white"/><g id="Group_2"><path id="Vector_8" d="M3.9941 81.0716L6.56476 90.3028L9.11814 81.0716H12.8497L9.31854 92.9368H3.81098L0.279785 81.0544L3.9941 81.0716Z" fill="white"/><path id="Vector_9" d="M16.5674 92.9369H12.8013L16.5156 81.0716H21.7571L25.4714 92.9369H21.7053L21.2077 91.228H17.0615L16.564 92.9369H16.5674ZM17.7456 88.7114H20.5478L19.1381 84.1061L17.7456 88.7114Z" fill="white"/><path id="Vector_10" d="M32.0742 93.3511C29.0233 93.3511 26.8154 91.5284 26.8154 89.0255H29.932C29.9493 90.037 30.8925 90.7827 32.1882 90.7827C33.2317 90.7827 33.9296 90.2856 33.9296 89.5709C33.9296 88.7079 32.8862 88.5767 31.625 88.411C29.1719 88.1279 26.8811 87.5169 26.8811 84.7137C26.8811 82.2764 28.9887 80.6539 31.9567 80.6539C34.9247 80.6539 37.1153 82.3938 37.1326 84.7965H34.1128C34.13 83.8852 33.249 83.2223 32.0742 83.2223C31.0618 83.2223 30.3674 83.6849 30.3674 84.3167C30.3674 85.1625 31.3624 85.2937 32.672 85.4421C35.0422 85.6907 37.4159 86.3052 37.4159 89.1049C37.4159 91.625 35.2115 93.3477 32.0742 93.3477V93.3511Z" fill="white"/><path id="Vector_11" d="M42.5401 92.9369H38.7739L42.4882 81.0716H47.7298L51.4441 92.9369H47.6779L47.1804 91.228H43.0342L42.5366 92.9369H42.5401ZM43.7183 88.7114H46.5204L45.1107 84.1061L43.7183 88.7114Z" fill="white"/><path id="Vector_12" d="M53.583 92.9369V81.0716H57.1833V89.8886H61.5299V92.9369H53.5865H53.583Z" fill="white"/><path id="Vector_13" d="M66.8199 92.9368H63.0537L66.768 81.0716H72.0095L75.7239 92.9368H71.9577L71.4602 91.228H67.3139L66.8164 92.9368H66.8199ZM67.9981 88.7114H70.8002L69.3905 84.1061L67.9981 88.7114ZM69.9364 77.3122H72.8042L70.3649 79.9151H68.0257L69.933 77.3122H69.9364Z" fill="white"/><path id="Vector_14" d="M82.6582 93.3511C79.6073 93.3511 77.3994 91.5284 77.3994 89.0255H80.516C80.5333 90.037 81.4765 90.7827 82.7722 90.7827C83.8157 90.7827 84.5136 90.2856 84.5136 89.5709C84.5136 88.7079 83.4702 88.5767 82.209 88.411C79.7558 88.1279 77.4651 87.5169 77.4651 84.7137C77.4651 82.2764 79.5727 80.6539 82.5407 80.6539C85.5087 80.6539 87.6993 82.3938 87.7166 84.7965H84.6968C84.714 83.8852 83.833 83.2223 82.6582 83.2223C81.6458 83.2223 80.9513 83.6849 80.9513 84.3167C80.9513 85.1625 81.9464 85.2937 83.2559 85.4421C85.6262 85.6907 87.9999 86.3052 87.9999 89.1049C87.9999 91.625 85.7955 93.3477 82.6582 93.3477V93.3511Z" fill="white"/></g><g id="Group_3"><path id="Vector_15" d="M18.1607 105.724H16.8442V97.9046H18.6893L21.222 104.056L23.7753 97.9046H25.6204V105.724H24.304V99.5478L21.7402 105.724H20.7244L18.1607 99.5616V105.724Z" fill="white"/><path id="Vector_16" d="M30.5753 104.595H34.8217V105.72H29.2935V97.9011H34.7112V99.0265H30.5753V101.181H34.2689V102.196H30.5753V104.592V104.595Z" fill="white"/><path id="Vector_17" d="M41.134 106C39.1783 106 37.7617 104.806 37.7617 103.173H39.0229C39.0229 104.177 39.9074 104.906 41.1685 104.906C42.2846 104.906 42.9376 104.333 42.9376 103.545C42.9376 102.651 41.9425 102.517 40.8368 102.365C39.3649 102.165 37.8619 101.902 37.8619 100.1C37.8619 98.6537 39.0885 97.6249 40.9128 97.6249C42.7372 97.6249 44.0743 98.7504 44.0743 100.311H42.8477C42.8477 99.3821 42.0392 98.7193 40.9232 98.7193C39.8072 98.7193 39.1749 99.2509 39.1749 99.969C39.1749 100.863 40.0801 101.008 41.21 101.163C42.6681 101.364 44.2505 101.626 44.2505 103.383C44.2505 104.909 43.0447 106 41.134 106Z" fill="white"/><path id="Vector_18" d="M49.3161 99.0404H46.8076V97.9011H53.141V99.0404H50.6429V105.724H49.3161V99.0404Z" fill="white"/><path id="Vector_19" d="M57.3112 104.595H61.5576V105.72H56.0293V97.9011H61.447V99.0265H57.3112V101.181H61.0048V102.196H57.3112V104.592V104.595Z" fill="white"/><path id="Vector_20" d="M66.1671 105.724H64.8403V97.9046H68.4441C70.1579 97.9046 71.3844 98.954 71.3844 100.445C71.3844 101.495 70.6209 102.424 69.5601 102.7L71.5157 105.727H69.9885L68.2644 102.9H66.1637V105.727L66.1671 105.724ZM66.1671 98.9955V101.833H68.2886C69.3044 101.833 70.0577 101.246 70.0577 100.442C70.0577 99.5237 69.3182 98.9955 68.2886 98.9955H66.1671Z" fill="white"/></g><path id="Vector_21" d="M12.3696 101.212H4.30518V102.503H12.3696V101.212Z" fill="white"/><path id="Vector_22" d="M83.27 101.212H75.2056V102.503H83.27V101.212Z" fill="white"/></g><defs><clipPath id="clip0_58_638"><rect width="88" height="106" fill="white"/></clipPath></defs></svg>