<svg width="24" height="25" viewBox="0 0 24 25" fill="none" xmlns="http://www.w3.org/2000/svg">
<path d="M20.6981 15.6995L16.2713 13.7185C16.0996 13.6443 15.9122 13.6139 15.726 13.6303C15.5397 13.6467 15.3604 13.7092 15.2044 13.8123C15.1919 13.8202 15.18 13.829 15.1688 13.8385L12.8438 15.8204C12.792 15.852 12.7333 15.8703 12.6728 15.8737C12.6123 15.8771 12.5519 15.8656 12.4969 15.8401C10.9744 15.1051 9.39845 13.5413 8.66345 12.0367C8.63745 11.9821 8.62538 11.9219 8.62832 11.8616C8.63127 11.8012 8.64914 11.7425 8.68032 11.6907L10.6678 9.32729C10.6772 9.31604 10.6856 9.30385 10.6941 9.29166C10.7968 9.13585 10.8592 8.95693 10.8755 8.77101C10.8919 8.58509 10.8618 8.39803 10.7878 8.22666L8.80314 3.80729C8.70732 3.58346 8.54148 3.39675 8.33051 3.2752C8.11954 3.15366 7.87483 3.10384 7.63314 3.13322C6.45336 3.28877 5.37054 3.86847 4.58694 4.76404C3.80334 5.65961 3.37254 6.8098 3.37501 7.99979C3.37501 15.2373 9.26251 21.1248 16.5 21.1248C17.69 21.1273 18.8402 20.6965 19.7358 19.9129C20.6313 19.1293 21.211 18.0464 21.3666 16.8667C21.3957 16.6261 21.3464 16.3825 21.226 16.1722C21.1056 15.9619 20.9204 15.7961 20.6981 15.6995ZM20.625 16.7729C20.4926 17.772 20.0009 18.6888 19.2417 19.3517C18.4825 20.0146 17.5079 20.3783 16.5 20.3748C9.67689 20.3748 4.12501 14.8229 4.12501 7.99979C4.12152 6.99192 4.48523 6.01729 5.14813 5.25811C5.81103 4.49893 6.72775 4.00717 7.72689 3.87479C7.74187 3.87386 7.7569 3.87386 7.77189 3.87479C7.84587 3.87542 7.91801 3.89792 7.97923 3.93946C8.04045 3.98099 8.08802 4.03971 8.11595 4.10822L10.095 8.5276C10.1181 8.58161 10.1282 8.6403 10.1244 8.69892C10.1207 8.75754 10.1032 8.81446 10.0734 8.8651L8.08689 11.2276C8.07751 11.2398 8.06814 11.251 8.0597 11.2642C7.95386 11.426 7.89153 11.6124 7.87872 11.8054C7.86591 11.9983 7.90306 12.1913 7.98657 12.3657C8.80126 14.0335 10.4813 15.7014 12.1678 16.516C12.3434 16.599 12.5375 16.6351 12.7312 16.6208C12.9249 16.6065 13.1116 16.5423 13.2731 16.4345L13.3078 16.4082L15.6356 14.4282C15.6854 14.3978 15.7417 14.3796 15.7999 14.3752C15.8581 14.3708 15.9165 14.3803 15.9703 14.4029L20.3963 16.3867C20.471 16.4178 20.5336 16.4722 20.5748 16.5418C20.616 16.6114 20.6336 16.6925 20.625 16.7729Z" fill="white"/>
</svg>
