<svg width="24" height="25" viewBox="0 0 24 25" fill="none" xmlns="http://www.w3.org/2000/svg"><path fill-rule="evenodd" clip-rule="evenodd" d="M12 13.5C12.7954 13.5 13.5582 13.1841 14.1208 12.6216C14.6834 12.0592 14.9996 11.2963 15 10.5008C15 9.7049 14.6839 8.94165 14.1213 8.3789C13.5587 7.81615 12.7956 7.5 12 7.5C11.2044 7.5 10.4413 7.81615 9.87868 8.3789C9.31607 8.94165 9 9.7049 9 10.5008C9.0004 11.2963 9.31664 12.0592 9.87921 12.6216C10.4418 13.1841 11.2046 13.5 12 13.5Z" stroke="white" stroke-linecap="square"/><path fill-rule="evenodd" clip-rule="evenodd" d="M21 11.0712C21 18.2144 13.5 22.5 12 22.5C10.5 22.5 3 18.2144 3 11.0712C3.00119 8.79735 3.94998 6.61702 5.63772 5.00969C7.32546 3.40235 9.61397 2.49962 12 2.5C16.9695 2.5 21 6.33818 21 11.0712Z" stroke="white" stroke-linecap="square"/></svg>