<svg width="1282" height="802" viewBox="0 0 1282 802" fill="none" xmlns="http://www.w3.org/2000/svg">
<path d="M1282 2H2V802H1282V2Z" fill="#FFE4D9"/>
<path d="M1282 435.23V701.6H2V435.23H122.86V651.5H144.34V396.4H156.07V246.96L256.43 281.93L281.54 290.67V396.4H293.26V459.61H317.67V218.45L339.64 209.45V111.51H376.76V13.99H384.08V111.51H418.75V177.04L443.16 167.04V498.89H474.9V243.8H487.6V196.84H507.61V162.2H518.84V155.3H556.43V162.2H567.67V196.84H587.69V243.8H600.39V543.59H626.75V435.23H752.23V454.94H782.51V285.79H886.99L889 325.52H916.78V435.23H930.94V558.4H988.56V290.67L1127.22 246.96V543.59H1156.52V435.23H1282Z" fill="#FFC8B0"/>
<path d="M1207.86 645.61V237.36H1182.59V195.03L1079.13 165.94V237.36H1053.86V645.61H1024.29V213.55L965.17 240.01V285.55L909.39 286.18V211.69H894.62V173.79H828.45V67.18H823.13V173.79H792.41V211.69H777.64V547.75L732.5 548.18L730.59 383.18H698.74V267.89H684.39V252.35H632.91V267.89H618.55V645.61H577.07V114.79H555.24V93.6299H521.76V53.95H515.56V93.6299H492.57V114.79H470.74V645.61H364.9V701.6H777.64H792.41H894.62H909.39H1238.37V645.61H1207.86Z" fill="#FFD4C2"/>
<path d="M255.01 205.96V701.6H26V645.7H61.26V395.24H128.43L139.81 223.13H131.24V205.96H150.28V179.55H245.49V205.96H255.01Z" fill="#FFD4C2"/>
<path d="M441.59 667.93C441.56 694.23 420.2 715.52 393.91 715.47C367.61 715.43 346.31 694.09 346.36 667.79C346.4 641.49 367.75 620.2 394.04 620.24C420.34 620.28 441.64 641.63 441.59 667.93Z" fill="#0D0000"/>
<path d="M999.06 667.93C999.02 694.23 977.67 715.52 951.37 715.47C925.08 715.43 903.78 694.08 903.83 667.78C903.86 641.48 925.21 620.19 951.51 620.23C977.81 620.27 999.1 641.62 999.06 667.92V667.93Z" fill="#0D0000"/>
<path d="M900.93 631.14H323.61V677.84H900.93V631.14Z" fill="#FF792B"/>
<path d="M401.83 287.45L292.13 287.25C288.86 287.25 285.82 288.91 284.06 291.66L133.19 527.85L133 654.47L401.84 654.9V287.44L401.83 287.45Z" fill="white"/>
<path d="M207.803 520.941L207.593 654.65L211.373 654.656L211.583 520.946L207.803 520.941Z" fill="#FF9838"/>
<path d="M275.59 388.52V392.28L361.12 392.4L360.75 654.81L364.53 654.82L364.9 388.65L275.59 388.52Z" fill="#FF9838"/>
<path d="M401.83 534.9L133.18 534.47L133.16 544.23L401.83 544.67V534.9Z" fill="#FF9838"/>
<path d="M401.83 654.91L133 654.48L132.99 663.93L401.83 664.36V654.91Z" fill="#FF9838"/>
<path d="M205.35 503.08C193.53 503.06 183.95 493.46 183.97 481.64V475.33C183.99 463.5 193.6 453.92 205.43 453.94L205.35 503.08Z" fill="#FF9838"/>
<path d="M322.9 520.57L323.1 387.64L278.06 387.58L208.16 468.83L208.09 520.41L322.9 520.57Z" fill="url(#paint0_linear_315_2)"/>
<g opacity="0.6">
<path d="M323.07 399.77L208.1 514.41L208.09 520.41L225.27 520.43L323.04 422.93L323.07 399.77Z" fill="#E9F2FF"/>
<path d="M322.99 460.34L323.02 437.17L239.5 520.45L262.67 520.48L322.99 460.34Z" fill="#E9F2FF"/>
</g>
<path d="M281.92 393.31L323.09 393.37L323.1 387.64L278.06 387.58L208.16 468.83L208.09 520.41L322.9 520.57L322.91 514.85L217.98 514.7L218.06 467.57L281.92 393.31Z" fill="#FF792B"/>
<path d="M194.56 565.49L177.87 565.47V557.94L194.57 557.96L194.56 565.49Z" fill="#F4A73A"/>
<path d="M194.56 580.24L177.87 580.21V572.69L194.57 572.71L194.56 580.24Z" fill="#F4A73A"/>
<path d="M149.77 607.65L133.08 607.62L133.14 557.96L149.84 557.97L149.77 607.65Z" fill="#FF9838"/>
<path d="M144.9 603.5L133.08 603.48L133.09 595.67L144.9 595.69V603.5Z" fill="#FF5338"/>
<path d="M144.91 591.42L133.1 591.41L133.14 561.5L144.95 561.51L144.91 591.42Z" fill="white"/>
<path d="M253.67 608.93C223.2 608.89 198.46 633.55 198.42 664.03L308.77 664.19C308.81 633.71 284.15 608.97 253.67 608.93Z" fill="#FF9838"/>
<path d="M301.21 667.69C301.17 693.99 279.83 715.28 253.52 715.24C227.22 715.2 205.94 693.86 205.97 667.56C206.01 641.26 227.36 619.97 253.66 620.01C279.96 620.04 301.24 641.39 301.21 667.69Z" fill="#1B0D09"/>
<path d="M284.7 667.67C284.68 684.85 270.72 698.76 253.54 698.73C236.36 698.71 222.46 684.76 222.48 667.58C222.5 650.4 236.45 636.49 253.63 636.51C270.82 636.53 284.73 650.48 284.7 667.67Z" fill="#FF9838"/>
<path d="M277.9 667.66C277.88 681.08 266.97 691.95 253.55 691.93C240.12 691.91 229.26 681.01 229.28 667.58C229.3 654.16 240.2 643.29 253.63 643.31C267.06 643.33 277.92 654.22 277.9 667.66Z" fill="white"/>
<path d="M860.12 214.93L859.6 654.72L1110.81 655.08L1111.32 224.84C1111.32 219.56 1107.05 215.28 1101.77 215.27L860.11 214.92L860.12 214.93Z" fill="#FF792B"/>
<path d="M1111.32 609.4H1077.44V617.2H1111.32V609.4Z" fill="white"/>
<path d="M391.91 223.99V654.21L859.6 654.71L860.12 214.92L401.48 214.43C396.2 214.43 391.91 218.71 391.91 223.99Z" fill="#FF9838"/>
<path d="M391.91 512.14V523.69L859.79 524.2L859.81 512.64L391.91 512.14Z" fill="white"/>
<path d="M391.91 532.87V544.43L859.79 544.94L859.81 533.37L391.91 532.87Z" fill="white"/>
<path d="M894.12 323.62L893.64 654.77L1082.08 655.04L1082.56 323.9L894.12 323.62Z" fill="#0D0000"/>
<path d="M1074.25 323.858L1073.79 655.008L1083.57 655.021L1084.03 323.872L1074.25 323.858Z" fill="#FF9838"/>
<path d="M377.62 654.39V663.84L1121.26 664.58L1121.28 655.13L377.62 654.39Z" fill="#FF9838"/>
<path d="M893.64 609.4H859.76V617.2H893.64V609.4Z" fill="white"/>
<path d="M788.35 608.93C757.88 608.88 733.14 633.55 733.1 664.03L843.45 664.19C843.5 633.71 818.83 608.98 788.35 608.93Z" fill="#FF9838"/>
<path d="M835.89 667.69C835.85 693.99 814.5 715.28 788.2 715.24C761.9 715.2 740.62 693.86 740.65 667.55C740.69 641.25 762.04 619.97 788.34 620C814.64 620.04 835.92 641.39 835.89 667.69Z" fill="#1B0D09"/>
<path d="M819.38 667.67C819.36 684.85 805.41 698.76 788.22 698.73C771.05 698.71 757.14 684.76 757.16 667.58C757.18 650.4 771.13 636.49 788.32 636.52C805.5 636.54 819.4 650.49 819.38 667.67Z" fill="#FF9838"/>
<path d="M812.58 667.65C812.56 681.08 801.66 691.95 788.23 691.93C774.81 691.91 763.94 681.01 763.96 667.58C763.98 654.16 774.88 643.29 788.3 643.31C801.72 643.32 812.59 654.22 812.57 667.64L812.58 667.65Z" fill="white"/>
<path d="M1046.87 539.33V651.79C1046.87 653.58 1045.42 655.04 1043.62 655.04H919.41C917.62 655.04 916.16 653.58 916.16 651.79V539.33C916.16 537.54 917.62 536.08 919.41 536.08H1043.62C1045.41 536.08 1046.87 537.54 1046.87 539.33Z" fill="url(#paint1_linear_315_2)"/>
<path d="M978.86 536.08H964.01V655.03H978.86V536.08Z" fill="#FBFFEB"/>
<path d="M1046.86 588.14H916.16V602.99H1046.86V588.14Z" fill="#FBFFEB"/>
<path d="M1046.86 539.33V651.79C1046.86 653.58 1045.41 655.04 1043.61 655.04H1023.53C1025.33 655.04 1026.78 653.58 1026.78 651.79V539.33C1026.78 537.53 1025.33 536.08 1023.53 536.08H1043.61C1045.41 536.08 1046.86 537.53 1046.86 539.33Z" fill="url(#paint2_linear_315_2)"/>
<path d="M1046.86 640.12V651.78C1046.86 653.57 1045.41 655.03 1043.61 655.03H919.4C917.61 655.03 916.16 653.57 916.16 651.78V645.99L1046.86 640.12Z" fill="url(#paint3_linear_315_2)"/>
<path d="M1054.32 457.14V533.69C1054.32 534.91 1053.33 535.9 1052.11 535.9H938.65C937.43 535.9 936.44 534.91 936.44 533.69V457.14C936.44 455.92 937.43 454.93 938.65 454.93H1052.11C1053.33 454.93 1054.32 455.92 1054.32 457.14Z" fill="url(#paint4_linear_315_2)"/>
<path d="M995.39 454.93H985.28V535.9H995.39V454.93Z" fill="#FBFFEB"/>
<path d="M1054.32 490.36H936.45V500.47H1054.32V490.36Z" fill="#FBFFEB"/>
<path d="M1054.32 457.14V533.69C1054.32 534.91 1053.33 535.9 1052.11 535.9H1038.44C1039.66 535.9 1040.65 534.91 1040.65 533.69V457.14C1040.65 455.91 1039.66 454.93 1038.44 454.93H1052.11C1053.33 454.93 1054.32 455.92 1054.32 457.14Z" fill="url(#paint5_linear_315_2)"/>
<path d="M1054.32 525.75V533.69C1054.32 534.91 1053.33 535.9 1052.11 535.9H938.66C937.44 535.9 936.45 534.91 936.45 533.69V529.75L1054.32 525.75Z" fill="url(#paint6_linear_315_2)"/>
<defs>
<linearGradient id="paint0_linear_315_2" x1="274.41" y1="384.06" x2="262.63" y2="530.89" gradientUnits="userSpaceOnUse">
<stop stop-color="#87B4F7"/>
<stop offset="1" stop-color="#428AF5"/>
</linearGradient>
<linearGradient id="paint1_linear_315_2" x1="981.51" y1="658.84" x2="981.51" y2="521.03" gradientUnits="userSpaceOnUse">
<stop stop-color="#FFE7B3"/>
<stop offset="1" stop-color="#FFEAC2"/>
</linearGradient>
<linearGradient id="paint2_linear_315_2" x1="1035.2" y1="527.75" x2="1035.2" y2="658.62" gradientUnits="userSpaceOnUse">
<stop stop-color="#FFBC7B"/>
<stop offset="1" stop-color="#FFBC7B"/>
</linearGradient>
<linearGradient id="paint3_linear_315_2" x1="906.36" y1="656.05" x2="1044.38" y2="645.66" gradientUnits="userSpaceOnUse">
<stop stop-color="#FFBC7B"/>
<stop offset="1" stop-color="#FFBC7B"/>
</linearGradient>
<linearGradient id="paint4_linear_315_2" x1="995.38" y1="538.49" x2="995.38" y2="444.69" gradientUnits="userSpaceOnUse">
<stop stop-color="#FFE7B3"/>
<stop offset="1" stop-color="#FFEAC2"/>
</linearGradient>
<linearGradient id="paint5_linear_315_2" x1="1046.38" y1="449.26" x2="1046.38" y2="538.34" gradientUnits="userSpaceOnUse">
<stop stop-color="#FFBC7B"/>
<stop offset="1" stop-color="#FFBC7B"/>
</linearGradient>
<linearGradient id="paint6_linear_315_2" x1="927.65" y1="537.84" x2="1051.92" y2="528.49" gradientUnits="userSpaceOnUse">
<stop stop-color="#FFBC7B"/>
<stop offset="1" stop-color="#FFBC7B"/>
</linearGradient>
</defs>
</svg>
